<svg xmlns="http://www.w3.org/2000/svg" xmlns:xlink="http://www.w3.org/1999/xlink" viewBox="0 -37.5 800 576" width="400px">

<path fill="#3E3F3F" d="M428.326,178.226c-0.806,0-1.612,0-2.419,0c-8.871-1.613-14.516-9.677-12.903-18.548l12.903-72.581
	c-1.613-30.645-25.807-54.839-56.452-54.839s-55.645,25-55.645,55.646c0,0.806,0,1.613,0,2.419l-12.903,74.193
	c-1.613,8.871-9.677,14.516-18.548,12.903s-14.516-9.678-12.903-18.548l12.903-73.387C282.359,38.709,321.875,0,369.456,0
	c48.387,0,87.904,39.516,87.904,87.903c0,0.806,0,1.613,0,2.419l-12.903,74.193C442.843,172.581,436.392,178.226,428.326,178.226z"
	/>
<path fill="#1D1E1E" d="M425.907,178.226c0.807,0,1.613,0,2.419,0c8.065,0,14.517-5.645,16.13-12.903L455.746,100
	c-8.064-39.516-43.549-70.161-86.291-70.161c-47.581,0-87.097,38.709-87.903,86.29l-9.677,55.646
	c2.419,3.226,5.645,5.645,9.677,6.451c8.871,1.613,16.936-4.032,18.548-12.903l12.903-74.194c0-0.806,0-1.613,0-2.419
	c0-30.645,25-55.645,55.646-55.645c30.645,0,54.839,24.193,55.645,54.032l-2.419,14.516c1.613,4.839,2.419,9.678,2.419,15.323
	l-9.677,55.645C417.843,175,421.068,177.419,425.907,178.226z"/>
<path fill="#0A8AE2" d="M625.101,475l-44.354-326.613c-1.613-9.678-9.678-19.355-20.161-19.355H239.617
	c-9.678,0-18.549,8.871-20.162,19.355l-45.161,328.226c-0.807,5.645,0.806,12.097,4.839,16.129
	c4.032,4.032,9.677,7.258,15.322,7.258h411.291l0,0c11.29,0,20.161-8.871,20.161-20.161
	C625.907,478.226,625.907,476.613,625.101,475z"/>
<path fill="#2CB4FF" d="M306.552,479.839c0-1.613,0-3.226-0.806-4.839l-44.355-326.613c-1.613-9.678-9.677-19.355-20.161-19.355
	h-1.613c-9.678,0-18.549,8.871-20.162,19.355l-45.161,328.226c-0.807,5.645,0.806,12.097,4.839,16.129
	c4.032,4.032,9.677,7.258,15.322,7.258h91.936l0,0C297.682,500,306.552,491.129,306.552,479.839z"/>
<path fill="#009CF2" d="M179.133,491.129c3.226,4.839,9.678,8.871,15.323,8.871h91.936l0,0c11.291,0,20.161-8.871,20.161-20.161
	c0-1.613,0-3.226-0.806-4.839l-44.355-326.613c-1.613-9.678-9.677-19.355-20.161-19.355h-2.419"/>
<path fill="#9BB1BA" d="M508.972,178.226c-7.258,0-14.516-5.645-16.129-12.903l-12.097-75c0-0.807,0-1.613,0-2.419
	c0-30.646-25-55.646-55.646-55.646c-30.645,0-54.838,24.194-55.645,54.033l12.903,72.581c1.613,8.871-4.032,16.936-12.903,18.548
	s-16.936-4.032-18.548-12.903l-12.903-74.193c0-0.807,0-1.613,0-2.419C338.004,39.516,377.52,0,425.907,0
	c46.774,0,85.483,38.709,86.29,86.291l12.903,73.387c1.613,8.871-4.032,16.936-12.903,18.548
	C511.391,178.226,510.585,178.226,508.972,178.226z"/>
<path fill="#8A98A0" d="M513.004,87.903c-12.903-33.064-44.354-56.452-82.258-56.452c-48.387,0-87.903,39.516-87.903,87.903
	c0,0.806,0,1.613,0,2.419l8.064,47.581c3.226,6.452,9.677,10.484,16.936,8.871c8.871-1.613,14.516-9.677,12.903-18.548
	l-12.903-72.581c1.613-30.645,26.613-54.839,57.258-54.839c30.646,0,55.646,25,55.646,55.646c0,0.806,0,1.613,0,2.419l0.807,5.645
	c3.226,7.258,4.838,14.516,4.838,22.581c0,0.807,0,1.613,0,2.419l8.065,47.581c2.419,5.645,8.064,8.871,14.516,8.871
	c0.807,0,1.613,0,2.419,0c8.871-1.613,14.517-9.678,12.903-18.548L513.004,87.903z"/>
<path fill="#8D6E63" d="M412.887,297.972c0.395-14.266,6.204-28.626,16.362-40.447c21.156-24.601,54.833-30.471,75.073-13.052
	c20.259,17.399,19.536,51.574-1.611,76.185c-10.157,11.82-23.481,19.727-37.525,22.253c-1.871,0.338-3.729,0.577-5.556,0.716
	c-12.172,0.921-23.367-2.523-31.983-9.928C417.728,325.193,412.483,312.494,412.887,297.972z"/>
<path fill="#6D4C41" d="M503.239,245.733c-5.691,8.024-9.658,16.99-16.858,23.892c-7.677,7.351-16.498,10.484-26.186,14.106
	c-21.269,7.946-30.622,27.135-31.475,48.716c6.162-8.67,10.452-18.19,18.533-25.395c7.068-6.292,15.014-9.174,23.662-12.255
	C492.669,287.021,502.294,267.654,503.239,245.733z"/>
<path fill="#795548" d="M474.609,342.422c-2.537-14.043-10.441-27.365-22.264-37.523c-24.619-21.136-58.795-21.869-76.183-1.603
	c-17.409,20.251-11.549,53.929,13.061,75.074c11.821,10.158,26.184,15.968,40.448,16.352c1.9,0.054,3.773,0.01,5.601-0.129
	c12.171-0.921,22.72-6.013,30.124-14.63C473.922,370.063,477.195,356.719,474.609,342.422z"/>
<path fill="#5D4037" d="M377.424,304.38c6.833,7.078,12.106,15.343,20.262,21.083c8.696,6.11,17.888,7.881,28.011,10.003
	c22.213,4.665,34.349,22.227,38.448,43.423c-7.396-7.644-13.07-16.41-22.144-22.316c-7.936-5.156-16.225-6.809-25.238-8.552
	C394.088,343.606,381.657,325.91,377.424,304.38z"/>
</svg>
