<svg version="1.1" id="Capa_1" xmlns="http://www.w3.org/2000/svg" xmlns:xlink="http://www.w3.org/1999/xlink" viewBox="0 0 512 512" width="200px">
<path style="fill:#E5E5E5;" d="M382.299,498l48.192-382.48H81.499L129.691,498c1.008,8,7.824,14,15.888,14h220.848
	C374.475,512,381.291,506,382.299,498z"/>
<g style="opacity:0.2;">
	<polygon style="fill:#010101;" points="427.803,136.864 430.491,115.52 81.515,115.52 84.203,136.864 	"/>
</g>
<path style="fill:#6F7070;" d="M442.283,46.976H69.707c-7.392,0-13.808,5.056-15.552,12.224l-8.848,36.56
	c-2.448,10.064,5.184,19.76,15.552,19.76h390.288c10.352,0,17.984-9.696,15.552-19.76l-8.848-36.544
	C456.091,52.032,449.659,46.976,442.283,46.976z"/>
<path style="fill:#787878;" d="M426.251,46.976H85.739l12.832-36.304C100.827,4.272,106.875,0,113.659,0h284.672
	c6.784,0,12.832,4.272,15.088,10.672L426.251,46.976z"/>
<g>
	<path style="fill:#838383;" d="M293.691,97.856H154.859c-9.168,0-16.608-7.424-16.608-16.608s7.424-16.608,16.608-16.608h138.832
		c9.168,0,16.608,7.424,16.608,16.608S302.859,97.856,293.691,97.856z"/>
	<path style="fill:#838383;" d="M98.811,97.856h-14.24c-9.168,0-16.608-7.424-16.608-16.608s7.44-16.608,16.608-16.608h14.224
		c9.168,0,16.608,7.424,16.608,16.608S107.979,97.856,98.811,97.856z"/>
</g>
<polygon style="fill:#ED6362;" points="399.211,427.712 427.707,201.568 84.283,201.568 112.779,427.712 "/>
<path style="fill:#EF7374;" d="M253.595,410.784c0-9.344-7.584-16.928-16.928-16.928h-43.824c-7.824,0-14.208-6.4-14.16-14.24
	v-0.176c0-0.352-0.016-0.688-0.032-1.04c-0.464-7.712,5.664-14.224,13.392-14.224h51.184c9.168,0,17.392-6.864,17.872-16.016
	c0.512-9.76-7.248-17.84-16.912-17.84h-30.448c-7.872,0-14.24-6.4-14.192-14.272v-0.976v-0.208
	c-0.048-8.272,6.688-15.056,14.96-15.056h43.76c9.168,0,17.392-6.864,17.856-16.016c0.512-9.76-7.248-17.84-16.912-17.84h-75.04
	c-8.176,0-14.288-6.864-14.192-15.056c0-0.064,0-0.144,0-0.208s0-0.144,0-0.208c-0.096-8.176,6-15.056,14.192-15.056h24.576
	c9.168,0,17.392-6.864,17.856-16.016c0.512-9.76-7.248-17.84-16.912-17.84H84.283l28.496,226.144h123.888
	C246.011,427.712,253.595,420.144,253.595,410.784z"/>
<ellipse style="fill:#464646;" cx="255.995" cy="306.24" rx="51.52" ry="67.44"/>
<path style="fill:#ED6362;" d="M255.995,238.208c0,0,0.592,0.256,1.68,0.768c1.056,0.592,2.816,0.976,4.656,2.432
	c4.032,2.592,9.152,7.12,13.2,14.576c4.112,7.328,6.544,17.6,5.392,28.704c-0.592,5.536-2.288,11.184-4.816,16.576
	c-2.336,5.168-6.72,10.8-9.904,14.192c-3.936,4.144-4.624,5.248-6.816,8.368c-1.664,2.896-3.344,5.824-4.464,8.976
	c-2.464,6.256-3.344,12.928-3.376,19.104c0.208,6.096,1.152,11.776,2.4,15.76c1.12,4.016,2.048,6.544,2.048,6.544
	c0.512-0.208-11.168-2.608-19.568-17.76c-4.128-7.328-6.56-17.616-5.392-28.72c0.608-5.536,2.288-11.2,4.832-16.576
	c2.224-5.072,7.344-11.504,9.92-14.176c3.328-3.44,4.752-5.328,6.832-8.352c1.696-2.88,3.328-5.824,4.48-8.976
	c2.464-6.256,3.344-12.944,3.376-19.12c-0.176-6.064-1.216-11.856-2.352-15.68C256.939,240.736,255.995,238.208,255.995,238.208z"/>
<g>
	<path style="fill:#D75C5C;" d="M354.363,376.448l7.744-58.32c1.216-9.088,9.552-15.488,18.656-14.272s15.488,9.552,14.272,18.656
		l-7.744,58.32c-1.2,9.088-9.552,15.488-18.656,14.272C359.547,393.888,353.163,385.536,354.363,376.448z"/>
	<path style="fill:#D75C5C;" d="M369.499,262.56l1.872-14.096c1.2-9.088,9.552-15.488,18.656-14.272
		c9.104,1.2,15.488,9.552,14.272,18.656l-1.872,14.096c-1.216,9.088-9.552,15.488-18.656,14.272S368.283,271.648,369.499,262.56z"/>
    </g>
</svg>
