<svg  xmlns="http://www.w3.org/2000/svg" xmlns:xlink="http://www.w3.org/1999/xlink" viewBox="36.5 73.5 603 415" width="400px">
<g>
	<path fill="#3CB44A" d="M233.512,323.668H102.738c-3.802,0-6.883,3.082-6.883,6.883v34.414c0,21.535,9.461,40.821,24.413,54.054
		c1.912,1.692,3.911,3.749,5.292,6.025c0.9,1.483,1.268,3.231,1.268,4.967v3.782h82.594v-3.782c0-1.735,0.367-3.483,1.268-4.967
		c1.38-2.276,3.379-4.333,5.292-6.025c14.952-13.232,24.414-32.519,24.414-54.054v-34.414
		C240.395,326.75,237.313,323.668,233.512,323.668z"/>
	<path fill="#0E9247" d="M240.395,340.875v13.766c9.504,0,13.766,4.262,13.766,13.766c0,9.505-4.261,13.766-13.766,13.766h-13.766
		v13.766h13.766c15.204,0,27.531-12.326,27.531-27.531C267.926,353.203,255.599,340.875,240.395,340.875z"/>
	<path fill="#0E9247" d="M271.367,433.793H65.262c-3.43,0-6.612,2.338-7.167,5.723c-0.706,4.309,2.61,8.043,6.788,8.043h45.551
		l4.98,9.961c1.166,2.332,3.549,3.805,6.156,3.805h93.11c2.607,0,4.99-1.473,6.156-3.805l4.98-9.961h45.182
		c3.429,0,6.607-2.342,7.158-5.727C278.857,437.521,275.547,433.793,271.367,433.793z"/>
	<path fill="#04803D" d="M271.367,433.793H168.125l0,0c0,7.604-6.163,13.766-13.766,13.766h-43.926l4.98,9.962
		c1.166,2.331,3.549,3.804,6.156,3.804h93.11c2.607,0,4.99-1.473,6.156-3.804l4.98-9.962h45.181c3.429,0,6.607-2.342,7.158-5.727
		C278.857,437.521,275.548,433.793,271.367,433.793z"/>
	<g>
		<path class="smoke" fill="#D0D7DA" d="M146.055,262.378c-1.542-1.119-3.693-0.772-4.806,0.767c-1.116,1.539-0.773,3.689,0.766,4.806
			c3.522,2.555,5.461,5.841,5.461,9.259s-1.939,6.705-5.461,9.26c-5.357,3.881-8.305,9.147-8.305,14.83
			c0,5.684,2.947,10.949,8.305,14.832c0.611,0.443,1.317,0.654,2.017,0.654c1.065,0,2.117-0.494,2.789-1.422
			c1.116-1.539,0.773-3.689-0.766-4.805c-3.522-2.555-5.461-5.842-5.461-9.26s1.939-6.704,5.461-9.258
			c5.357-3.883,8.305-9.148,8.305-14.832C154.359,271.526,151.412,266.26,146.055,262.378z"/>
		<path class="smoke" fill="#D0D7DA" d="M173.586,262.378c-1.546-1.119-3.693-0.772-4.806,0.767c-1.116,1.539-0.773,3.689,0.766,4.806
			c3.522,2.555,5.461,5.841,5.461,9.259s-1.939,6.705-5.461,9.26c-5.357,3.881-8.305,9.147-8.305,14.83
			c0,5.684,2.947,10.949,8.305,14.832c0.611,0.443,1.317,0.654,2.017,0.654c1.065,0,2.117-0.494,2.789-1.422
			c1.116-1.539,0.773-3.689-0.766-4.805c-3.522-2.555-5.461-5.842-5.461-9.26s1.939-6.704,5.461-9.258
			c5.357-3.883,8.305-9.148,8.305-14.832C181.891,271.526,178.943,266.26,173.586,262.378z"/>
		<path class="smoke" fill="#D0D7DA" d="M201.117,292.04c5.357-3.882,8.305-9.147,8.305-14.831c0-5.683-2.948-10.949-8.305-14.831
			c-1.546-1.119-3.697-0.772-4.806,0.767c-1.116,1.539-0.773,3.689,0.766,4.806c3.522,2.555,5.461,5.841,5.461,9.259
			s-1.939,6.705-5.461,9.26c-5.357,3.881-8.305,9.147-8.305,14.83c0,5.684,2.948,10.949,8.305,14.832
			c0.611,0.443,1.317,0.654,2.017,0.654c1.065,0,2.117-0.494,2.789-1.422c1.116-1.539,0.773-3.689-0.766-4.805
			c-3.522-2.555-5.461-5.842-5.461-9.26S197.596,294.595,201.117,292.04z"/>
	</g>
	<path fill="#0E9247" d="M233.512,323.668h-3.919c-13.465,0-24.798,10.078-26.372,23.451l-6.852,58.239
		c-1.446,12.29-11.862,21.552-24.236,21.552h-38.627c-3.764,0-6.78,3.119-6.678,6.882v0.001h41.297h24.899h16.397v-3.781
		c0-1.736,0.367-3.484,1.268-4.969c1.38-2.276,3.379-4.332,5.292-6.024c14.951-13.233,24.413-32.519,24.413-54.054v-34.414
		C240.395,326.75,237.313,323.668,233.512,323.668z"/>
</g>
<g>
	<path fill="#3CB44A" d="M531.208,221.095H414.63c-36.255,0-66.949,23.663-77.583,56.372l-17.869-14.295
		c-1.033-0.825-2.317-1.275-3.64-1.275h-52.46c-2.092,0-4.024,1.122-5.063,2.938c-1.036,1.822-1.019,4.053,0.046,5.857
		l74.964,126.863v15.894h279.787V302.699C612.813,257.631,576.277,221.095,531.208,221.095z"/>
	<path fill="#B1C3D0" d="M414.63,221.095v-49.545c0-33.802,27.401-61.204,61.203-61.204s61.203,27.402,61.203,61.204v49.84
		c8.168,0.579,15.988,2.353,23.315,5.16v-55c0.001-46.679-37.84-84.519-84.518-84.519l0,0c-46.679,0-84.52,37.84-84.52,84.519
		v52.995C398.707,222.338,406.517,221.095,414.63,221.095z"/>
	<path fill="#8EADBE" d="M414.63,221.095v-49.545c0-31.834,24.309-57.971,55.374-60.909c-1.921-0.181-3.861-0.294-5.829-0.294
		c-33.802,0-61.203,27.402-61.203,61.204v50.424C406.784,221.427,410.666,221.095,414.63,221.095z"/>
	<path fill="#8EADBE" d="M548.694,171.549v51.471c4.012,0.876,7.892,2.085,11.657,3.529v-55
		c0.001-46.679-37.84-84.519-84.518-84.519l0,0c-1.969,0-3.895,0.163-5.829,0.294C513.951,90.332,548.694,126.839,548.694,171.549z"
		/>
	<path fill="#B1C3D0" d="M333.025,413.448v23.315c0,12.877,10.439,23.315,23.315,23.315h233.156
		c12.877,0,23.315-10.438,23.315-23.315v-23.315H333.025z"/>
	<path fill="#0E9247" d="M333.025,302.699c0-8.744,1.409-17.152,3.955-25.05c-5.091-2.899-11.812-0.304-13.271,5.635
		c-1.528,6.222-2.342,12.721-2.342,19.415v32.649c0,6.953-9.177,9.462-12.713,3.476l-10.602-18.639
		c-11.293-18.579-17.62-11.883-17.487-11.657l40.802,69.298l11.658,19.729V302.699z"/>
	<path fill="#0E9247" d="M578.068,235.923c-9.973-7.001-22.915,4.075-16.84,14.637c6.855,11.92,10.781,25.734,10.781,40.48v87.434
		c0,12.877-10.439,23.315-23.315,23.315H344.683c-6.438,0-11.658,5.22-11.658,11.658l0,0h279.787V302.699
		C612.812,275.073,599.079,250.672,578.068,235.923z"/>
	<path fill="#0E9247" d="M531.207,221.095H420.458l0,0c0-12.876,10.439-23.315,23.315-23.315h64.118
		C520.77,197.779,531.207,208.218,531.207,221.095L531.207,221.095z"/>
	<path fill="#8EADBE" d="M612.812,413.448L612.812,413.448h-46.631v23.315l0,0c0,6.438-5.219,11.658-11.658,11.658H367.998
		c-6.438,0-11.658,5.219-11.658,11.657h157.38h23.315h52.46c12.877,0,23.315-10.438,23.315-23.315V413.448L612.812,413.448z
		 M601.154,436.768v-0.004l0,0C601.154,436.764,601.154,436.766,601.154,436.768z"/>
	<path fill="#B1C3D0" d="M472.918,186.122c-6.438,0-11.657,5.219-11.657,11.658h23.315
		C484.576,191.34,479.357,186.122,472.918,186.122z"/>
</g>
</svg>
