<svg xmlns="http://www.w3.org/2000/svg" xmlns:xlink="http://www.w3.org/1999/xlink" viewBox="0 -37.5 800 582" width="300px">
<path fill="#C69C6C" d="M310.731,139.54l-89.978,267.625c-2.979,8.446,1.26,19.795,8.88,24.202l98.098,56.742
	c8.096,4.683,19.295,2.899,25.407-4.37L539.784,272.03L310.731,139.54z"/>
<path fill="#CEB093" d="M252.183,425.345l90.454-267.35l-31.905-18.455l-89.978,267.625c-2.979,8.446,1.26,19.795,8.88,24.202
	l31.905,18.455C253.443,445.14,249.68,434.066,252.183,425.345z"/>
<path fill="transparent" d="M311.356,137.36c36.91-63.812,118.088-85.493,181.9-48.583c63.811,36.91,85.217,118.564,48.582,181.9
	L311.356,137.36z"/>
<path fill="rgba(255, 255, 255, 0.18)" d="M511.001,100.948c-5.639-4.533-11.078-8.315-17.745-12.171c-63.812-36.91-145.265-14.752-181.9,48.583
	l36.668,21.209C381.353,100.949,450.528,78.044,511.001,100.948z"/>
<path fill="#56596A" d="M560.858,274.052l-8.571-4.958c33.227-64.036,12.422-143.435-47.757-183.328l11.845-20.477l54.38,13.661
	c4.36,1.251,9.221-1.658,9.996-6.293c1.251-4.36-1.658-9.221-6.294-9.996l-60.445-15.262c-3.884-0.976-7.441,0.78-9.369,4.113
	l-15.15,26.191c-63.834-32.475-143.033-10.919-181.974,49.811l-8.572-4.958c-3.81-2.204-9.071-0.799-11.275,3.011
	c-2.204,3.81-0.798,9.071,3.011,11.275l10.477,6.06l-88.101,261.085c-4.23,12.806,1.289,27.438,12.718,34.048l98.098,56.742
	c11.429,6.611,27.34,4.375,35.855-5.952l182.39-206.546l10.476,6.06c3.81,2.204,9.071,0.798,11.275-3.012
	C566.073,281.517,565.145,276.531,560.858,274.052z M481.705,92.264l-59.221,102.384l-100.955-58.395
	C356.063,83.143,425.49,64.197,481.705,92.264z M346.821,478.179c-3.432,3.735-10.672,5.267-14.958,2.788l-98.098-56.742
	c-4.762-2.755-7.321-9.318-5.042-14.356l4.781-13.758l123.336,71.341L346.821,478.179z M368.235,454.342L238.708,379.42
	l77.214-227.98l211.433,122.298L368.235,454.342z M437.046,202.436l58.945-101.908c52.084,35.21,70.077,104.087,41.258,160.503
	l-100.479-58.12L437.046,202.436z"/>
</svg>
