<svg version="1.1" id="Capa_1" xmlns="http://www.w3.org/2000/svg" xmlns:xlink="http://www.w3.org/1999/xlink" viewBox="0 0 512 512" width="200px">
<path style="fill:#ECEFF1;" d="M112,64L61.504,164.96C52.64,182.752,48,202.336,48,222.208V480c0,17.664,14.336,32,32,32h320V64H112
	z"/>
<g>
	<path style="fill:#CFD8DC;" d="M112,64V32c0-17.664,14.336-32,32-32h224c17.664,0,32,14.336,32,32v32"/>
	<path style="fill:#CFD8DC;" d="M432,512h-96V222.208c0-19.872,4.64-39.456,13.504-57.248L400,64l50.496,100.96
		C459.36,182.752,464,202.336,464,222.208V480C464,497.664,449.664,512,432,512z"/>
</g>
<path style="fill:#795548;" d="M248.96,419.456C263.808,401.408,272,377.44,272,352c0-52.96-35.904-96.032-80-96
	c-44.128,0-80,43.072-80,96c0,25.44,8.192,49.376,23.04,67.456c1.984,2.4,4.032,4.672,6.176,6.784
	C155.488,440.352,173.248,448,192,448C213.6,448,233.824,437.888,248.96,419.456z"/>
<path style="fill:#5D4037;" d="M192,258.72c-1.504,15.968-6.208,31.296-4.608,47.488c1.696,17.248,9.408,30.528,17.632,45.312
	c18.08,32.448,9.12,66.144-13.024,93.76c1.6-17.28,6.496-33.632,4.128-51.136c-2.08-15.296-8.928-27.328-16.448-40.352
	C160.8,321.056,169.568,286.848,192,258.72z"/>

</svg>
