<svg version="1.1" id="Layer_1" xmlns="http://www.w3.org/2000/svg" xmlns:xlink="http://www.w3.org/1999/xlink"  viewBox="0 0 512 512" width="300px">
<g>
	<path style="fill:#854437;" d="M106.507,334.18c-3.158,12.343-16.632,22.539-36.605,24.643
		c-19.251,2.028-38.74-4.089-46.727-14.598c-2.059-2.697-3.352-5.675-3.686-8.891c-0.28-2.708,0.129-5.406,1.143-8.017
		c4.818-12.57,23.261-23.338,43.277-25.452c19.381-2.05,34.374,4.65,40.41,15.483c1.509,2.687,2.458,5.632,2.781,8.761
		C107.391,328.861,107.186,331.57,106.507,334.18z"/>
	<path style="fill:#854437;" d="M166.718,278.647c0.108,3.075-0.388,6.118-1.52,9.052c-0.992,2.579-2.414,4.888-4.204,6.905
		c-8.44,9.538-25.093,12.462-43.816,5.211c-18.066-6.992-32.628-21.342-34.924-34.343c-0.604-3.334-0.388-6.571,0.776-9.581
		c0.981-2.535,2.576-4.736,4.656-6.603c10.024-8.999,31.345-10.164,50.133-2.892C156.004,253.443,166.287,266.239,166.718,278.647z"
		/>
	<path style="fill:#854437;" d="M252.809,222.607c0,2.762-0.485,5.438-1.423,7.963c-4.419,11.955-18.885,20.705-38.955,20.737
		c-19.37,0.022-38.125-8.071-44.981-19.356c-1.757-2.892-2.738-5.988-2.738-9.214c0-2.73,0.69-5.362,1.951-7.855
		c6.09-12.009,25.546-20.835,45.681-20.856c19.488-0.022,33.706,8.178,38.61,19.583
		C252.163,216.435,252.809,219.467,252.809,222.607z"/>
	<path style="fill:#854437;" d="M106.787,201.34c-0.42,2.73-1.315,5.287-2.641,7.639c-6.198,11.124-21.838,17.544-41.682,14.469
		c-19.143-2.967-36.422-13.864-41.456-26.078c-1.293-3.129-1.778-6.344-1.283-9.527c0.42-2.687,1.498-5.19,3.137-7.456
		c7.869-10.93,28.456-16.626,48.354-13.541c19.273,2.978,32.046,13.293,35.118,25.323C107.1,195.147,107.272,198.233,106.787,201.34
		z"/>
	<path style="fill:#854437;" d="M249.425,163.394c-2.091,2.255-4.603,4.068-7.47,5.341c-2.522,1.122-5.152,1.759-7.847,1.91
		c-12.708,0.788-26.549-8.923-34.687-27.297c-7.847-17.727-8.02-38.173-0.485-49.006c1.94-2.784,4.376-4.931,7.33-6.236
		c2.49-1.101,5.174-1.532,7.955-1.381c13.431,0.723,29.351,14.987,37.511,33.415C259.633,137.985,257.865,154.309,249.425,163.394z"
		/>
	<path style="fill:#854437;" d="M155.788,143.336c-0.959,2.935-2.479,5.621-4.56,7.984c-1.822,2.071-3.956,3.744-6.338,5.017
		c-11.221,6.02-27.842,2.978-42.9-10.325C87.482,133.194,78.794,114.69,81.133,101.7c0.582-3.345,1.908-6.323,4.042-8.739
		c1.789-2.039,4.053-3.55,6.651-4.586c12.504-4.952,32.93,1.359,48.031,14.695C154.462,115.985,159.679,131.554,155.788,143.336z"/>
</g>
<g>
	<path style="fill:#63352B;" d="M106.507,334.18c-0.442-0.032-0.895-0.108-1.347-0.216c-0.183-0.054-20.997-4.942-38.19,3.949
		c-10.93,5.654-22.55,7.154-31.766,7.154c-4.797,0-8.957-0.399-12.029-0.842c-2.059-2.697-3.352-5.675-3.686-8.891
		c-0.28-2.708,0.129-5.406,1.143-8.017c0.269,0.043,0.528,0.097,0.798,0.162c0.205,0.054,20.933,4.952,38.114-3.938
		c17.203-8.901,36.142-7.509,44.776-6.193c1.509,2.687,2.458,5.632,2.781,8.761C107.391,328.861,107.186,331.57,106.507,334.18z"/>
	<path style="fill:#63352B;" d="M166.718,278.647c0.108,3.075-0.388,6.118-1.52,9.052c-0.992,2.579-2.414,4.888-4.204,6.905
		c-0.388-0.237-0.755-0.507-1.11-0.809c-0.14-0.13-16.352-13.929-35.646-13.929h-0.323c-18.626,0-34.266-9.171-41.661-14.393
		c-0.604-3.334-0.388-6.571,0.776-9.581c0.981-2.535,2.576-4.736,4.656-6.603c0.226,0.151,0.442,0.313,0.647,0.496
		c0.075,0.065,4.15,3.539,10.617,7.002c6.467,3.453,15.328,6.895,24.964,6.895h0.323
		C143.532,263.682,159.669,273.544,166.718,278.647z"/>
	<path style="fill:#63352B;" d="M106.787,201.34c-0.42,2.73-1.315,5.287-2.641,7.639c-0.42-0.14-0.841-0.324-1.25-0.55
		c-0.162-0.086-19.036-10.142-37.931-5.945c-18.27,4.057-35.603-1.586-43.957-5.114c-1.293-3.129-1.778-6.344-1.283-9.527
		c0.42-2.687,1.498-5.19,3.137-7.456c0.248,0.108,0.496,0.227,0.744,0.356c0.151,0.076,13.042,6.97,28.176,6.97
		c3.158,0,6.413-0.302,9.68-1.025c18.906-4.208,36.864,1.996,44.873,5.481C107.1,195.147,107.272,198.233,106.787,201.34z"/>
	<path style="fill:#63352B;" d="M249.425,163.394c-2.091,2.255-4.603,4.068-7.47,5.341c-2.522,1.122-5.152,1.759-7.847,1.91
		c-0.119-0.432-0.183-0.885-0.216-1.349c-0.022-0.194-1.757-21.525-15.5-35.174c-13.28-13.196-17.904-30.836-19.456-39.781
		c1.94-2.784,4.376-4.931,7.33-6.236c2.49-1.101,5.174-1.532,7.955-1.381c0.054,0.27,0.086,0.539,0.108,0.82
		c0.021,0.313,1.757,21.493,15.457,35.087C243.54,136.291,248.024,154.773,249.425,163.394z"/>
	<path style="fill:#63352B;" d="M155.788,143.336c-0.959,2.935-2.479,5.621-4.56,7.984c-1.822,2.071-3.956,3.744-6.338,5.017
		c-0.28-0.345-0.528-0.734-0.755-1.144c-0.097-0.173-10.574-18.828-28.747-25.485c-17.559-6.43-29.114-20.532-34.255-28.009
		c0.582-3.345,1.908-6.323,4.042-8.739c1.789-2.039,4.053-3.55,6.651-4.586c0.162,0.216,0.302,0.453,0.442,0.701
		c0.043,0.097,2.673,4.79,7.567,10.293c4.883,5.503,12.029,11.815,21.116,15.138C139.135,121.175,150.916,136.086,155.788,143.336z"
		/>
	<path style="fill:#63352B;" d="M252.809,222.607c0,2.762-0.485,5.438-1.423,7.963c-0.442-0.075-0.884-0.194-1.326-0.356
		c-0.172-0.065-20.372-7.078-38.395-0.011c-8.17,3.215-16.481,4.273-23.897,4.273c-8.386,0-15.64-1.359-20.318-2.525
		c-1.757-2.892-2.738-5.988-2.738-9.214c0-2.73,0.69-5.362,1.951-7.855c0.259,0.065,0.528,0.14,0.787,0.237
		c0.237,0.086,20.318,7.078,38.319,0.022c18.033-7.089,36.735-3.733,45.185-1.532C252.163,216.435,252.809,219.467,252.809,222.607z
		"/>
</g>
<path style="fill:#E89D41;" d="M499.156,118.135l-157.889,87.262l-16.284-26.129L472.887,75.983
	c11.68-8.156,27.811-4.854,35.346,7.236l0,0C515.767,95.309,511.625,111.244,499.156,118.135z"/>
<path style="fill:#F6F1DD;" d="M16.029,439.786l279.505-100.897c52.658-19.008,79.934-77.102,60.925-129.756l-12.877-35.666
	c-1.82-5.041-7.377-7.653-12.415-5.834l-19.612,7.08c-37.565,13.56-72.55,33.41-103.458,58.701L17.247,389.576
	C5.384,399.283-1.005,414.17,0.129,429.465l0,0C0.711,437.324,8.623,442.459,16.029,439.786z"/>
<path style="fill:#D6C9AD;" d="M356.458,209.133l-12.877-35.666c-1.82-5.041-7.377-7.653-12.415-5.834l-9.952,3.592l12.663,35.075
	c19.379,53.677-4.498,112.43-53.715,138.137l15.37-5.548C348.191,319.88,375.468,261.787,356.458,209.133z"/>

</svg>
