<?xml version="1.0" encoding="utf-8"?>
<svg id="master-artboard" viewBox="0 0 1400 980" version="1.1" xmlns="http://www.w3.org/2000/svg" x="0px" y="0px" width="1400px" height="980px" enable-background="new 0 0 1400 980">
<g transform="matrix(1, 0, 0, 1, 0, 7.105427357601002e-15)">
		<path d="M 0 0 H 1400 V 980 H 0 V 0 Z" fill="#FFFFFF"/>
	</g>
<g transform="matrix(1, 0, 0, 1, 0, 7.105427357601002e-15)">
		<path d="M 947.799988 523.700012 H 1257.099976 V 579.900013 H 947.799988 V 523.700012 Z" fill="#26A0F0"/>
		<path d="M1257.1,583.5H947.8c-2,0-3.5-1.6-3.5-3.5v-56.2c0-2,1.6-3.5,3.5-3.5h309.3c2,0,3.5,1.6,3.5,3.5v56.2&#10;&#9;&#9;&#9;C1260.6,581.9,1259,583.5,1257.1,583.5z M951.4,576.4h302.2v-49.2H951.4V576.4z"/>
	</g><path d="M1257.1,884.2H947.8c-2,0-3.5-1.6-3.5-3.5V579.9c0-2,1.6-3.5,3.5-3.5h309.3c2,0,3.5,1.6,3.5,3.5v300.7&#10;&#9;&#9;&#9;C1260.6,882.6,1259,884.2,1257.1,884.2z M951.4,877.1h302.2V583.5H951.4V877.1z" transform="matrix(1, 0, 0, 1, 0, 1.4210854715202004e-14)"/>
<path d="M834.3,519.6c-0.4,0-0.8-0.1-1.1-0.2c-1.7-0.6-2.7-2.4-2.3-4.2l1.4-5.6c0.4-1.7,2-2.9,3.9-2.7c1.8,0.2,3.1,1.7,3.1,3.5&#10;&#9;&#9;c0,2.2-0.6,4.4-1.7,7C837,518.8,835.7,519.6,834.3,519.6z" transform="matrix(1, 0, 0, 1, 0, 7.105427357601002e-15)"/>
<path d="M569.7,519.6c-1.4,0-2.6-0.8-3.2-2.1c-1.2-2.6-1.7-4.9-1.7-7.1c0-1.8,1.3-3.3,3.1-3.5c1.8-0.3,3.4,0.9,3.9,2.7l1.4,5.7&#10;&#9;&#9;c0.4,1.8-0.6,3.6-2.3,4.2C570.4,519.5,570.1,519.6,569.7,519.6z" transform="matrix(1, 0, 0, 1, 0, 7.105427357601002e-15)"/>
<path d="M835.7,514c-1.8,0-3.3-1.3-3.5-3c0-0.2,0-0.4,0-0.5c0-1.8,1.4-3.3,3.2-3.5c0.3,0,0.6,0,0.9,0c1.9,0.3,3.2,2.1,2.9,4.1&#10;&#9;&#9;c-0.2,1-0.7,1.8-1.4,2.3C837.2,513.7,836.5,514,835.7,514z" transform="matrix(1, 0, 0, 1, 0, 7.105427357601002e-15)"/>
<path fill="#F1F2F2" d="M702,469.2c-73.8,0-133.7,18.5-133.7,41.2l1.4,5.7c3.5,7.9,14.4,15.1,30.4,20.9&#10;&#9;&#9;c16.7-12.3,56-20.9,101.9-20.9s85.3,8.6,101.9,20.9c15.9-5.8,26.8-13,30.4-20.9l1.4-5.6v0C835.7,487.6,775.8,469.2,702,469.2z" transform="matrix(1, 0, 0, 1, 0, 7.105427357601002e-15)"/><path d="M600.1,540.5c-0.4,0-0.8-0.1-1.2-0.2c-17.6-6.4-28.5-14.1-32.4-22.8l-1.6-6.3c-0.1-0.3-0.1-0.6-0.1-0.8&#10;&#9;&#9;c0-28,69.8-44.8,137.3-44.8c67.5,0,137.2,16.7,137.2,44.8c0,0.3,0,0.6-0.1,0.9l-1.4,5.6c-4.1,9.3-15,17-32.6,23.4&#10;&#9;&#9;c-1.1,0.4-2.4,0.2-3.3-0.5c-16.4-12.1-56.6-20.2-99.8-20.2c-43.3,0-83.4,8.1-99.8,20.2C601.5,540.3,600.8,540.5,600.1,540.5z&#10;&#9;&#9; M571.8,510l1.3,5.2c2.7,5.9,12.1,12.4,26.4,17.8c18.6-12.5,58.4-20.5,102.5-20.5c44.1,0,83.9,8,102.5,20.5&#10;&#9;&#9;c14.3-5.5,23.8-12,26.6-18.4l1.1-4.5c-0.8-17.8-54-37.4-130.2-37.4C625.8,472.7,572.6,492.3,571.8,510z" transform="matrix(1, 0, 0, 1, 0, 7.105427357601002e-15)"/>
<path fill="#8D6D22" d="M600.1,537c24.5,8.9,61,14.6,101.9,14.6s77.5-5.7,101.9-14.6c-16.7-12.3-56-20.9-101.9-20.9&#10;&#9;&#9;S616.7,524.7,600.1,537z" transform="matrix(1, 0, 0, 1, 0, 7.105427357601002e-15)"/><path d="M702,555.2c-39.7,0-77.3-5.4-103.2-14.9c-1.2-0.4-2.1-1.5-2.3-2.8c-0.2-1.3,0.4-2.6,1.4-3.3c17.8-13.1,58.7-21.6,104-21.6&#10;&#9;&#9;c45.4,0,86.2,8.5,104,21.6c1,0.8,1.6,2.1,1.4,3.3c-0.2,1.3-1.1,2.4-2.3,2.8C779.3,549.8,741.7,555.2,702,555.2z M608.3,536.1&#10;&#9;&#9;c24.7,7.7,58.3,12.1,93.7,12.1c35.4,0,69-4.4,93.7-12.1c-19-10-55.1-16.4-93.7-16.4C663.4,519.6,627.3,526.1,608.3,536.1z" transform="matrix(1, 0, 0, 1, 0, 7.105427357601002e-15)"/>
<g transform="matrix(1, 0, 0, 1, 0, 7.105427357601002e-15)">
		<path d="M814,657.1C814,657.1,814,657.1,814,657.1c-4.5,0-9.3-0.5-14.1-1.3c-1-0.2-1.8-0.7-2.3-1.6c-0.5-0.8-0.7-1.8-0.5-2.8&#10;&#9;&#9;&#9;l25.8-103.8c0.4-1.6,1.8-2.7,3.4-2.7h28c0.6,0,15.1,0.2,21.6,9.5c3.7,5.2,4,12,1.1,20.1l-14.5,54.9&#10;&#9;&#9;&#9;C861.8,631.2,848.8,657.1,814,657.1z M804.9,649.3c3.1,0.4,6.2,0.6,9.1,0.6c30.5,0,41.8-22.8,41.9-23l14.3-54.6&#10;&#9;&#9;&#9;c2.2-6.1,2.1-10.7-0.2-14c-4.4-6.3-15.7-6.5-15.9-6.5H829L804.9,649.3z"/>
	</g><path d="M702,717.5c-72.5,0-94.7-37.6-95.6-39.2c-0.2-0.3-0.3-0.6-0.4-0.9l-39.8-160.4c-0.4-1.8,0.5-3.6,2.3-4.2&#10;&#9;&#9;&#9;c1.7-0.6,3.6,0.2,4.4,1.9c7.3,16.5,57.6,33.5,129.1,33.5c71.5,0,121.8-17,129.1-33.5c0.8-1.7,2.6-2.5,4.4-1.9&#10;&#9;&#9;&#9;c1.7,0.6,2.7,2.4,2.3,4.2l-39.8,160.5c-0.1,0.3-0.2,0.6-0.4,0.9C796.7,679.9,774.5,717.5,702,717.5z M612.8,675.1&#10;&#9;&#9;&#9;c2.4,3.8,24.9,35.3,89.2,35.3c64.3,0,86.7-31.5,89.2-35.3L827.5,529c-21.2,15.7-69.4,26.2-125.5,26.2S597.7,544.7,576.5,529&#10;&#9;&#9;&#9;L612.8,675.1z" transform="matrix(1, 0, 0, 1, 0, 1.4210854715202004e-14)"/>
<path d="M853,692.1h-43.5c-2,0-3.5-1.6-3.5-3.5c0-2,1.6-3.5,3.5-3.5H853c2,0,3.5,1.6,3.5,3.5C856.6,690.5,855,692.1,853,692.1z" transform="matrix(1, 0, 0, 1, 0, 7.105427357601002e-15)"/>
<path d="M702,742.8c-84.8,0-112.9-47.9-114-50l-0.4-0.7h-41.4c-2,0-3.5-1.6-3.5-3.5c0-2,1.6-3.5,3.5-3.5h43.5&#10;&#9;&#9;c1.3,0,2.4,0.7,3.1,1.8l1.4,2.5c1.1,1.9,27.1,46.4,107.9,46.4c2,0,3.5,1.6,3.5,3.5S704,742.8,702,742.8z" transform="matrix(1, 0, 0, 1, 0, 7.105427357601002e-15)"/>
<path d="M702,502.5c-2,0-3.5-1.6-3.5-3.5v-95.1c0-0.9,0.4-1.8,1-2.5L806,294.8c11-11,17.1-25.7,17.1-41.3&#10;&#9;&#9;c0-15.6-6.1-30.3-17.1-41.3l-7.3-7.3c-3-3-6.4-5.7-10.1-8c-6.4-4.1-13.5-6.8-20.9-8.1c-18.9-3.4-38.2,2.7-51.7,16.2l-11.5,11.5&#10;&#9;&#9;c-1.4,1.4-3.6,1.4-5,0L688,204.8c-13.5-13.5-32.8-19.5-51.7-16.2c-7.5,1.3-14.5,4.1-20.9,8.1c-3.7,2.4-7.1,5.1-10.1,8l-7.3,7.3&#10;&#9;&#9;c-11,11-17.1,25.7-17.1,41.3s6.1,30.3,17.1,41.3l52.8,52.8c1.4,1.4,1.4,3.6,0,5c-1.4,1.4-3.6,1.4-5,0L593,299.8&#10;&#9;&#9;c-12.4-12.4-19.2-28.8-19.2-46.3c0-17.5,6.8-34,19.2-46.3l7.3-7.3c3.3-3.3,7.1-6.4,11.3-9c7.2-4.6,15.1-7.6,23.5-9.1&#10;&#9;&#9;c21.1-3.8,42.8,3,57.9,18.1l9,9.1l9-9c15.1-15.1,36.8-21.9,57.9-18.1c8.4,1.5,16.2,4.6,23.5,9.1c4.2,2.7,8,5.7,11.3,9l7.3,7.3&#10;&#9;&#9;c25.6,25.6,25.6,67.1,0,92.7L705.5,405.3V499C705.5,500.9,704,502.5,702,502.5z" transform="matrix(1, 0, 0, 1, 0, 7.105427357601002e-15)"/>
<path d="M740.4,506.6c-2,0-3.5-1.6-3.5-3.5v-68.7c0-2,1.6-3.5,3.5-3.5c2,0,3.5,1.6,3.5,3.5v68.7C744,505,742.4,506.6,740.4,506.6z" transform="matrix(1, 0, 0, 1, 0, 7.105427357601002e-15)"/>
<path d="M663.6,506.6c-2,0-3.5-1.6-3.5-3.5v-68.7c0-2,1.6-3.5,3.5-3.5c2,0,3.5,1.6,3.5,3.5v68.7C667.1,505,665.5,506.6,663.6,506.6&#10;&#9;&#9;z" transform="matrix(1, 0, 0, 1, 0, 7.105427357601002e-15)"/>
<path d="M632.3,660.5c-1.6,0-3.1-1.1-3.4-2.7l-18.1-75.6c-0.5-1.9,0.7-3.8,2.6-4.3c1.9-0.5,3.8,0.7,4.3,2.6l18.1,75.6&#10;&#9;&#9;c0.5,1.9-0.7,3.8-2.6,4.3C632.9,660.5,632.6,660.5,632.3,660.5z" transform="matrix(1, 0, 0, 1, 0, 7.105427357601002e-15)"/>
<path fill="#FFFFFF" d="M1152.3,245.5h-115.8c-35,0-55,17.9-54.5,43.6c0.2,10,3.4,21.2,10.3,33l57.9,100.3&#10;&#9;&#9;c3.3,5.7,6.8,10.5,10.6,14.6c20.4,22.6,46.9,22.6,67.4,0c3.7-4.1,7.3-9,10.6-14.6l57.9-100.3c6.8-11.8,10.1-23,10.3-33&#10;&#9;&#9;C1207.3,263.3,1187.3,245.5,1152.3,245.5z" transform="matrix(1, 0, 0, 1, 0, 7.105427357601002e-15)"/><path d="M1094.4,457.4c-13,0-25.6-6.3-36.3-18.1c-4.1-4.5-7.8-9.6-11-15.2l-57.9-100.3c-6.9-11.9-10.5-23.6-10.7-34.7&#10;&#9;&#9;c-0.2-12.2,3.8-23,11.8-31.1c10.3-10.5,26.3-16.1,46.2-16.1h115.8c19.9,0,35.9,5.6,46.2,16.1c8,8.1,12.1,18.9,11.8,31.1&#10;&#9;&#9;c-0.2,11.1-3.8,22.8-10.7,34.7l-57.9,100.3c-3.2,5.6-6.9,10.7-11,15.2C1119.9,451.2,1107.4,457.4,1094.4,457.4z M1036.5,249&#10;&#9;&#9;c-18,0-32.2,4.8-41.2,14c-6.6,6.8-10,15.8-9.8,26.1c0.2,9.9,3.5,20.4,9.8,31.3l57.9,100.3c3,5.2,6.4,9.9,10.1,14&#10;&#9;&#9;c18.7,20.6,43.4,20.6,62.1,0c3.7-4.1,7.1-8.8,10.1-14l57.9-100.3c6.3-10.9,9.6-21.4,9.8-31.3c0.2-10.3-3.2-19.3-9.8-26.1&#10;&#9;&#9;c-8.9-9.1-23.2-14-41.2-14H1036.5z" transform="matrix(1, 0, 0, 1, 0, 7.105427357601002e-15)"/>
<path fill="#FFFFFF" d="M960.9,438.2l-34.4-57.4c-2.4-4-4.2-8.3-5.3-12.6l-46.5,57.6c-16.3,20.2-8.5,34.2,17.3,31.1l76.2-9.3&#10;&#9;&#9;C965.5,444.8,963,441.7,960.9,438.2z" transform="matrix(1, 0, 0, 1, 0, 7.105427357601002e-15)"/><path d="M885.2,460.9c-10.6,0-18.1-3.5-21.1-9.8c-3.4-7.2-0.7-16.9,7.8-27.5l46.5-57.6c0.8-1,2.2-1.5,3.5-1.2&#10;&#9;&#9;c1.3,0.3,2.3,1.2,2.7,2.5c1.2,4.2,2.8,8.2,5,11.8l34.4,57.4c1.8,3.1,4.1,6,6.8,8.7c0.9,1,1.3,2.4,0.8,3.6c-0.4,1.3-1.6,2.2-2.9,2.3&#10;&#9;&#9;l-76.2,9.3C889.8,460.8,887.4,460.9,885.2,460.9z M919.9,375.4l-42.4,52.6c-6.6,8.2-9.1,15.5-7,20c2.2,4.7,9.9,6.7,21.1,5.4&#10;&#9;&#9;l69.6-8.5c-1.2-1.6-2.3-3.2-3.3-4.9l-34.4-57.4C922.1,380.4,920.9,377.9,919.9,375.4z" transform="matrix(1, 0, 0, 1, 0, 7.105427357601002e-15)"/>
<path fill="#F1F2F2" d="M1050.1,422.4l-57.9-100.3c-6.8-11.8-10.1-23-10.3-33L943.8,312c-19.7,11.8-28.4,35.1-22.6,56.2&#10;&#9;&#9;c1.2,4.3,2.9,8.6,5.3,12.6l34.4,57.4c2.1,3.5,4.6,6.6,7.3,9.4c15.9,16.2,41.3,20,61.6,7.9l30.9-18.5&#10;&#9;&#9;C1056.9,432.8,1053.4,428,1050.1,422.4z" transform="matrix(1, 0, 0, 1, 0, 7.105427357601002e-15)"/><path d="M1004.1,466.2C1004.1,466.2,1004.1,466.2,1004.1,466.2c-14.4,0-28.4-5.9-38.4-16.1c-3.1-3.1-5.7-6.5-7.8-10l-34.4-57.4&#10;&#9;&#9;c-2.5-4.1-4.4-8.7-5.7-13.5c-6.3-23.1,3.6-47.9,24.2-60.2l38.2-22.9c1.1-0.6,2.4-0.7,3.5-0.1c1.1,0.6,1.8,1.8,1.8,3&#10;&#9;&#9;c0.2,9.9,3.5,20.4,9.8,31.3l57.9,100.3c3,5.2,6.4,9.9,10.1,14c0.7,0.8,1,1.8,0.9,2.9c-0.2,1-0.8,2-1.7,2.5l-30.9,18.5&#10;&#9;&#9;C1023.3,463.5,1013.8,466.2,1004.1,466.2z M978.9,295l-33.3,20c-17.8,10.7-26.5,32.2-21,52.3c1.2,4.2,2.8,8.2,5,11.7l34.4,57.4&#10;&#9;&#9;c1.8,3.1,4.1,6,6.8,8.7c8.7,8.9,20.9,14,33.3,14l0,0c8.4,0,16.6-2.3,23.9-6.6l27.3-16.4c-3-3.7-5.7-7.7-8.2-12l-57.9-100.3&#10;&#9;&#9;C983.5,314,980,304.3,978.9,295z" transform="matrix(1, 0, 0, 1, 0, 7.105427357601002e-15)"/>
<path fill="#FFFFFF" d="M1314.1,425.8l-46.5-57.6c-1.2,4.3-2.9,8.6-5.3,12.6l-34.4,57.4c-2.1,3.5-4.6,6.6-7.3,9.4l76.2,9.3&#10;&#9;&#9;C1322.5,460.1,1330.3,446.1,1314.1,425.8z" transform="matrix(1, 0, 0, 1, 0, 7.105427357601002e-15)"/><path d="M1303.6,460.9C1303.6,460.9,1303.6,460.9,1303.6,460.9c-2.2,0-4.7-0.1-7.2-0.5l-76.2-9.3c-1.3-0.2-2.5-1.1-2.9-2.3&#10;&#9;&#9;c-0.4-1.3-0.1-2.7,0.8-3.6c2.7-2.7,5-5.7,6.8-8.7l34.4-57.4c2.1-3.6,3.8-7.5,5-11.7c0.4-1.3,1.4-2.3,2.7-2.5&#10;&#9;&#9;c1.3-0.3,2.6,0.2,3.5,1.2l46.5,57.6c8.5,10.6,11.3,20.3,7.8,27.5C1321.6,457.4,1314.1,460.9,1303.6,460.9z M1227.5,444.9l69.6,8.5&#10;&#9;&#9;c2.3,0.3,4.4,0.4,6.4,0.4h0c7.7,0,12.9-2.1,14.7-5.8c2.2-4.5-0.4-11.8-7-20l-42.4-52.6c-1,2.5-2.2,4.9-3.6,7.2l-34.4,57.4&#10;&#9;&#9;C1229.9,441.7,1228.8,443.3,1227.5,444.9z" transform="matrix(1, 0, 0, 1, 0, 7.105427357601002e-15)"/>
<path fill="#F1F2F2" d="M1245,312l-38.2-22.9c-0.2,10-3.4,21.2-10.3,33l-57.9,100.3c-3.3,5.7-6.8,10.5-10.6,14.6l30.9,18.5&#10;&#9;&#9;c20.3,12.2,45.7,8.3,61.6-7.9c2.7-2.8,5.2-5.9,7.3-9.4l34.4-57.4c2.4-4,4.2-8.3,5.3-12.6C1273.3,347.1,1264.7,323.8,1245,312z" transform="matrix(1, 0, 0, 1, 0, 7.105427357601002e-15)"/><path d="M1184.7,466.2L1184.7,466.2c-9.7,0-19.2-2.6-27.5-7.6l-30.9-18.5c-0.9-0.5-1.5-1.5-1.7-2.5c-0.2-1,0.2-2.1,0.9-2.9&#10;&#9;&#9;c3.7-4.1,7.2-8.8,10.1-14l57.9-100.3c6.3-10.9,9.6-21.4,9.8-31.3c0-1.3,0.7-2.4,1.8-3c1.1-0.6,2.5-0.6,3.5,0.1l38.2,22.9&#10;&#9;&#9;c20.5,12.3,30.5,37.1,24.2,60.2c-1.3,4.8-3.2,9.4-5.7,13.5l-34.4,57.4c-2.1,3.5-4.7,6.9-7.8,10C1213,460.3,1199,466.2,1184.7,466.2&#10;&#9;&#9;z M1133.5,436.1l27.3,16.4c7.2,4.3,15.5,6.6,23.9,6.6c12.5,0,24.6-5.1,33.3-14c2.7-2.7,5-5.7,6.8-8.7l34.4-57.4&#10;&#9;&#9;c2.1-3.6,3.8-7.5,5-11.7c5.5-20.1-3.2-41.6-21-52.3l-33.3-20c-1.2,9.3-4.6,19-10.3,28.8l-57.9,100.3&#10;&#9;&#9;C1139.2,428.4,1136.4,432.4,1133.5,436.1z" transform="matrix(1, 0, 0, 1, 0, 7.105427357601002e-15)"/>
<path d="M 1149.300048828125 84.69999694824219 L 875.4000244140625 84.69999694824219 L 875.4000244140625 219.6999969482422 L 1057 219.6999969482422 L 1086.300048828125 270.3999938964844 L 1115.5 219.6999969482422 L 1149.300048828125 219.6999969482422 Z" fill="#FFFFFF" transform="matrix(1, 0, 0, 1, 0, 7.105427357601002e-15)"/><path d="M1086.3,273.9c-1.3,0-2.4-0.7-3.1-1.8l-28.2-48.9H875.4c-2,0-3.5-1.6-3.5-3.5v-135c0-2,1.6-3.5,3.5-3.5h273.9&#10;&#9;&#9;c2,0,3.5,1.6,3.5,3.5v135c0,2-1.6,3.5-3.5,3.5h-31.8l-28.2,48.9C1088.7,273.2,1087.5,273.9,1086.3,273.9z M878.9,216.2H1057&#10;&#9;&#9;c1.3,0,2.4,0.7,3.1,1.8l26.2,45.3l26.2-45.3c0.6-1.1,1.8-1.8,3.1-1.8h30.3V88.3H878.9V216.2z" transform="matrix(1, 0, 0, 1, 0, 7.105427357601002e-15)"/>
<path d="M 826.700012 130.699997 A 23 23 0 0 1 803.700012 153.699997 A 23 23 0 0 1 780.700012 130.699997 A 23 23 0 0 1 803.700012 107.699997 A 23 23 0 0 1 826.700012 130.699997 Z" fill="#26A0F0" transform="matrix(1, 0, 0, 1, 0, 7.105427357601002e-15)"/><path d="M803.7,157.2c-14.6,0-26.5-11.9-26.5-26.5s11.9-26.5,26.5-26.5s26.5,11.9,26.5,26.5S818.3,157.2,803.7,157.2z M803.7,111.2&#10;&#9;&#9;c-10.7,0-19.4,8.7-19.4,19.4c0,10.7,8.7,19.4,19.4,19.4s19.4-8.7,19.4-19.4C823.2,120,814.5,111.2,803.7,111.2z" transform="matrix(1, 0, 0, 1, 0, 7.105427357601002e-15)"/>
<path d="M 725 130.699997 A 23 23 0 0 1 702 153.699997 A 23 23 0 0 1 679 130.699997 A 23 23 0 0 1 702 107.699997 A 23 23 0 0 1 725 130.699997 Z" fill="#26A0F0" transform="matrix(1, 0, 0, 1, 0, 7.105427357601002e-15)"/><path d="M702,157.2c-14.6,0-26.5-11.9-26.5-26.5s11.9-26.5,26.5-26.5c14.6,0,26.5,11.9,26.5,26.5S716.6,157.2,702,157.2z&#10;&#9;&#9; M702,111.2c-10.7,0-19.4,8.7-19.4,19.4c0,10.7,8.7,19.4,19.4,19.4s19.4-8.7,19.4-19.4C721.4,120,712.7,111.2,702,111.2z" transform="matrix(1, 0, 0, 1, 0, 7.105427357601002e-15)"/>
<path d="M 623.299988 130.699997 A 23 23 0 0 1 600.299988 153.699997 A 23 23 0 0 1 577.299988 130.699997 A 23 23 0 0 1 600.299988 107.699997 A 23 23 0 0 1 623.299988 130.699997 Z" fill="#26A0F0" transform="matrix(1, 0, 0, 1, 0, 7.105427357601002e-15)"/><path d="M600.3,157.2c-14.6,0-26.5-11.9-26.5-26.5s11.9-26.5,26.5-26.5s26.5,11.9,26.5,26.5S614.9,157.2,600.3,157.2z M600.3,111.2&#10;&#9;&#9;c-10.7,0-19.4,8.7-19.4,19.4c0,10.7,8.7,19.4,19.4,19.4c10.7,0,19.4-8.7,19.4-19.4C619.7,120,611,111.2,600.3,111.2z" transform="matrix(1, 0, 0, 1, 0, 7.105427357601002e-15)"/>
<path d="M1185.2,222.7c-2,0-3.5-1.6-3.5-3.5v-88.5c0-2,1.6-3.5,3.5-3.5c2,0,3.5,1.6,3.5,3.5v88.5&#10;&#9;&#9;C1188.8,221.1,1187.2,222.7,1185.2,222.7z" transform="matrix(1, 0, 0, 1, 0, 7.105427357601002e-15)"/>
<path d="M1220.5,222.7c-2,0-3.5-1.6-3.5-3.5v-55.4c0-2,1.6-3.5,3.5-3.5c2,0,3.5,1.6,3.5,3.5v55.4&#10;&#9;&#9;C1224,221.1,1222.5,222.7,1220.5,222.7z" transform="matrix(1, 0, 0, 1, 0, 7.105427357601002e-15)"/>
<g transform="matrix(1, 0, 0, 1, 0, 7.105427357601002e-15)">
		<path fill="#8D6D22" d="M705.4,634.3l-6.7-3.2c-12.5-6-23.4-22.3-24.2-36.1l-0.1-1.4c-15,11-15.6,36.9-1.2,58.5&#10;&#9;&#9;&#9;c14.7,22,39.5,31.2,55.5,20.6c0.3-0.2,0.6-0.4,1-0.7l-0.1-1.4C728.7,656.6,717.9,640.4,705.4,634.3z"/>
		<path d="M713.5,680.5C713.5,680.5,713.5,680.5,713.5,680.5c-15.7,0-32.3-10.2-43.2-26.6c-15.5-23.2-14.6-51,2.1-63.3&#10;&#9;&#9;&#9;c1-0.8,2.4-0.9,3.6-0.4c1.2,0.6,1.9,1.7,2,3l0.1,1.4c0.7,12.5,10.8,27.7,22.2,33.2l6.7,3.2c13.6,6.5,25.3,24.1,26.2,39.1l0.1,1.4&#10;&#9;&#9;&#9;c0.1,1.2-0.5,2.4-1.5,3.1l-1.1,0.8C725.6,678.8,719.8,680.5,713.5,680.5z M671.8,601.1c-8.5,11.5-7.1,31.9,4.3,48.9&#10;&#9;&#9;&#9;c9.5,14.2,24.2,23.4,37.4,23.4h0c4.7,0,8.8-1.1,12.5-3.4c-1-12.4-11-27.2-22.1-32.6l-6.7-3.2C685.3,628.6,674.9,614.6,671.8,601.1&#10;&#9;&#9;&#9;z"/>
	</g><path fill="#8D6D22" d="M730.8,613.5c-14.7-22-39.5-31.2-55.5-20.6c-0.3,0.2-0.6,0.4-1,0.7l0.1,1.4c0.8,13.9,11.6,30.1,24.2,36.1&#10;&#9;&#9;&#9;l6.7,3.2c12.5,6,23.4,22.3,24.2,36.1l0.1,1.4C744.6,660.9,745.2,635,730.8,613.5z" transform="matrix(1, 0, 0, 1, 0, 1.4210854715202004e-14)"/><path d="M729.6,675.4c-0.5,0-1-0.1-1.5-0.3c-1.2-0.5-2-1.7-2-3l-0.1-1.4c-0.7-12.5-10.9-27.7-22.2-33.2l-6.7-3.2&#10;&#9;&#9;&#9;c-13.6-6.5-25.3-24.1-26.1-39.1l-0.1-1.4c-0.1-1.2,0.5-2.4,1.5-3.1l1.1-0.7c4.9-3.3,10.7-5,17.1-5c15.7,0,32.3,10.2,43.2,26.6&#10;&#9;&#9;&#9;c15.5,23.2,14.6,51-2.1,63.3C731.1,675.2,730.3,675.4,729.6,675.4z M678.1,595.4c1,12.4,11,27.2,22.1,32.6l6.7,3.2&#10;&#9;&#9;&#9;c11.8,5.7,22.2,19.7,25.3,33.2c8.5-11.6,7.1-31.9-4.3-48.9c-9.5-14.2-24.2-23.4-37.3-23.4C685.9,592,681.7,593.1,678.1,595.4z" transform="matrix(1, 0, 0, 1, 0, 1.4210854715202004e-14)"/>
<g transform="matrix(1, 0, 0, 1, 0, 7.105427357601002e-15)">
		<path d="M 130.699997 563.900024 H 307.599991 V 596.200024 H 130.699997 V 563.900024 Z" fill="#26A0F0"/>
		<path d="M307.6,599.7H130.7c-2,0-3.5-1.6-3.5-3.5v-32.3c0-2,1.6-3.5,3.5-3.5h176.9c2,0,3.5,1.6,3.5,3.5v32.3&#10;&#9;&#9;&#9;C311.1,598.1,309.5,599.7,307.6,599.7z M134.3,592.6h169.8v-25.2H134.3V592.6z"/>
	</g><path d="M 98 596.099976 H 340.199997 V 640.299976 H 98 V 596.099976 Z" fill="#FF8579" transform="matrix(1, 0, 0, 1, 0, 1.4210854715202004e-14)"/><path d="M340.3,643.9H98c-2,0-3.5-1.6-3.5-3.5v-44.2c0-2,1.6-3.5,3.5-3.5h242.2c2,0,3.5,1.6,3.5,3.5v44.2&#10;&#9;&#9;&#9;C343.8,642.3,342.2,643.9,340.3,643.9z M101.6,636.8h235.1v-37.2H101.6V636.8z" transform="matrix(1, 0, 0, 1, 0, 1.4210854715202004e-14)"/><path d="M 175.60000610351562 563.9000244140625 L 147.60000610351562 536.5 L 130.6999969482422 536.5 L 130.6999969482422 563.9000244140625 Z" fill="#26A0F0" transform="matrix(1, 0, 0, 1, 0, 1.4210854715202004e-14)"/><path d="M175.6,567.4h-44.9c-2,0-3.5-1.6-3.5-3.5v-27.4c0-2,1.6-3.5,3.5-3.5h16.8c0.9,0,1.8,0.4,2.5,1l28.1,27.4&#10;&#9;&#9;&#9;c1,1,1.3,2.5,0.8,3.9C178.4,566.5,177.1,567.4,175.6,567.4z M134.3,560.3H167L146.1,540h-11.9V560.3z" transform="matrix(1, 0, 0, 1, 0, 1.4210854715202004e-14)"/><path d="M 238.8000030517578 692.5999755859375 L 118.9000015258789 692.5999755859375 L 111.80000305175781 640.4000244140625 L 219.10000610351562 640.4000244140625 L 326.5 640.4000244140625 L 291.3999938964844 897.2000122070312 L 219.10000610351562 897.2000122070312 L 146.89999389648438 897.2000122070312 L 139 839.7999877929688 L 238.8000030517578 839.7999877929688 Z" fill="#FFFFFF" transform="matrix(1, 0, 0, 1, 0, 1.4210854715202004e-14)"/><path d="M291.4,900.8H146.9c-1.8,0-3.3-1.3-3.5-3.1l-7.8-57.4c-0.1-1,0.2-2,0.8-2.8c0.7-0.8,1.6-1.2,2.7-1.2h96.2V696.1H118.9&#10;&#9;&#9;&#9;c-1.8,0-3.3-1.3-3.5-3.1l-7.1-52.2c-0.1-1,0.2-2,0.8-2.8c0.7-0.8,1.6-1.2,2.7-1.2h214.8c1,0,2,0.4,2.7,1.2c0.7,0.8,1,1.8,0.8,2.8&#10;&#9;&#9;&#9;l-35.1,256.9C294.7,899.5,293.2,900.8,291.4,900.8z M150,893.7h138.4l34.1-249.8H115.8L122,689h116.8c2,0,3.5,1.6,3.5,3.5v147.2&#10;&#9;&#9;&#9;c0,2-1.6,3.5-3.5,3.5h-95.7L150,893.7z" transform="matrix(1, 0, 0, 1, 0, 1.4210854715202004e-14)"/><path d="M 238.8000030517578 692.5999755859375 L 238.8000030517578 839.7999877929688 L 139 839.7999877929688 L 118.9000015258789 692.5999755859375 Z" fill="#F1F2F2" transform="matrix(1, 0, 0, 1, 0, 1.4210854715202004e-14)"/><path d="M238.8,843.4H139c-1.8,0-3.3-1.3-3.5-3.1l-20.1-147.2c-0.1-1,0.2-2,0.8-2.8c0.7-0.8,1.6-1.2,2.7-1.2h119.9&#10;&#9;&#9;&#9;c2,0,3.5,1.6,3.5,3.5v147.2C242.3,841.8,240.8,843.4,238.8,843.4z M142.1,836.3h93.2V696.1H123L142.1,836.3z" transform="matrix(1, 0, 0, 1, 0, 1.4210854715202004e-14)"/><path d="M 124 726.299988 L 201.600006 726.299988" fill="#FFFFFF" transform="matrix(1, 0, 0, 1, 0, 1.4210854715202004e-14)"/><path d="M201.6,729.9H124c-2,0-3.5-1.6-3.5-3.5c0-2,1.6-3.5,3.5-3.5h77.5c2,0,3.5,1.6,3.5,3.5&#10;&#9;&#9;&#9;C205.1,728.3,203.5,729.9,201.6,729.9z" transform="matrix(1, 0, 0, 1, 0, 1.4210854715202004e-14)"/><path d="M 129.300003 766.200012 L 206.899994 766.200012" fill="#FFFFFF" transform="matrix(1, 0, 0, 1, 0, 1.4210854715202004e-14)"/><path d="M206.9,769.7h-77.5c-2,0-3.5-1.6-3.5-3.5c0-2,1.6-3.5,3.5-3.5h77.5c2,0,3.5,1.6,3.5,3.5&#10;&#9;&#9;&#9;C210.4,768.2,208.8,769.7,206.9,769.7z" transform="matrix(1, 0, 0, 1, 0, 1.4210854715202004e-14)"/><path d="M 134.699997 806.099976 L 212.199997 806.099976" fill="#FFFFFF" transform="matrix(1, 0, 0, 1, 0, 1.4210854715202004e-14)"/><path d="M212.2,809.6h-77.5c-2,0-3.5-1.6-3.5-3.5c0-2,1.6-3.5,3.5-3.5h77.5c2,0,3.5,1.6,3.5,3.5&#10;&#9;&#9;&#9;C215.7,808,214.2,809.6,212.2,809.6z" transform="matrix(1, 0, 0, 1, 0, 1.4210854715202004e-14)"/>
<path d="M650.3,900.8H340.3c-1,0-2-0.4-2.7-1.2c-0.7-0.8-1-1.8-0.8-2.8l18.9-138c0.2-1.8,1.7-3.1,3.5-3.1h241.1&#10;&#9;&#9;c2,0,3.5,1.6,3.5,3.5v93.3l48.9,42c1.1,1,1.5,2.5,1,3.9C653.2,899.8,651.8,900.8,650.3,900.8z M344.3,893.7h296.5L598,856.8&#10;&#9;&#9;c-0.8-0.7-1.2-1.7-1.2-2.7v-91.4H362.2L344.3,893.7z" transform="matrix(1, 0, 0, 1, 0, 7.105427357601002e-15)"/>
<path d="M816.8,900.8H707.8c-2,0-3.5-1.6-3.5-3.5V788.3c0-2,1.6-3.5,3.5-3.5h108.9c2,0,3.5,1.6,3.5,3.5v108.9&#10;&#9;&#9;C820.3,899.2,818.7,900.8,816.8,900.8z M711.4,893.7h101.9V791.8H711.4V893.7z" transform="matrix(1, 0, 0, 1, 0, 7.105427357601002e-15)"/>
<path fill="#FF8579" d="M792.7,821.3l-2.1-2.1c-0.9-0.9-2-1.7-3.1-2.4c-2-1.3-4.1-2.1-6.3-2.5c-5.5-1-11.4,0.6-15.7,4.9l-3.3,3.3&#10;&#9;&#9;l-3.3-3.3c-4.3-4.3-10.1-5.9-15.7-4.9c-2.2,0.4-4.4,1.2-6.3,2.5c-1.1,0.7-2.1,1.5-3.1,2.4l-2.1,2.1c-6.9,6.9-6.9,18.1,0,25l3.3,3.3&#10;&#9;&#9;l27.1,27.2l27.1-27.2l3.3-3.3C799.7,839.4,799.7,828.2,792.7,821.3z" transform="matrix(1, 0, 0, 1, 0, 7.105427357601002e-15)"/><path d="M762.3,880.3c-0.9,0-1.8-0.4-2.5-1l-30.4-30.5c-4-4-6.2-9.3-6.2-15c0-5.7,2.2-11,6.2-15l2.1-2.1c1.1-1.1,2.4-2.1,3.7-2.9&#10;&#9;&#9;c2.3-1.5,4.9-2.5,7.6-3c6.9-1.2,13.9,1,18.8,5.9l0.8,0.8l0.8-0.8c4.9-4.9,12-7.1,18.8-5.9c2.7,0.5,5.3,1.5,7.6,3&#10;&#9;&#9;c1.4,0.9,2.6,1.8,3.7,2.9l2.1,2.1c4,4,6.2,9.3,6.2,15c0,5.7-2.2,11-6.2,15l-30.4,30.4C764.1,880,763.2,880.3,762.3,880.3z&#10;&#9;&#9; M746.5,817.6c-0.8,0-1.7,0.1-2.5,0.2c-1.8,0.3-3.5,1-5.1,2c-0.9,0.6-1.7,1.2-2.5,2l-2.1,2.1c-2.7,2.7-4.1,6.2-4.1,10&#10;&#9;&#9;c0,3.8,1.5,7.3,4.1,10l28,28l27.9-27.9c2.7-2.7,4.2-6.2,4.2-10c0-3.8-1.5-7.4-4.2-10l-2.1-2.1c-0.7-0.7-1.5-1.4-2.5-1.9&#10;&#9;&#9;c-1.6-1-3.3-1.6-5.1-2c-4.6-0.8-9.3,0.7-12.5,3.9l-3.3,3.3c-1.4,1.4-3.6,1.4-5,0l-3.3-3.3C753.8,819,750.3,817.6,746.5,817.6z" transform="matrix(1, 0, 0, 1, 0, 7.105427357601002e-15)"/>
<path fill="#FFFFFF" d="M987.4,551.8c0,5.6-4.6,10.2-10.2,10.2c-5.6,0-10.2-4.6-10.2-10.2c0-5.6,4.6-10.2,10.2-10.2&#10;&#9;&#9;C982.9,541.6,987.4,546.2,987.4,551.8z" transform="matrix(1, 0, 0, 1, 0, 7.105427357601002e-15)"/><path d="M977.3,565.5c-7.6,0-13.7-6.2-13.7-13.7c0-7.6,6.2-13.7,13.7-13.7c7.6,0,13.7,6.2,13.7,13.7&#10;&#9;&#9;C991,559.4,984.8,565.5,977.3,565.5z M977.3,545.2c-3.7,0-6.6,3-6.6,6.6c0,3.7,3,6.6,6.6,6.6c3.7,0,6.6-3,6.6-6.6&#10;&#9;&#9;C983.9,548.1,980.9,545.2,977.3,545.2z" transform="matrix(1, 0, 0, 1, 0, 7.105427357601002e-15)"/>
<path d="M1054.2,555.3h-46.9c-2,0-3.5-1.6-3.5-3.5c0-2,1.6-3.5,3.5-3.5h46.9c2,0,3.5,1.6,3.5,3.5&#10;&#9;&#9;C1057.7,553.8,1056.2,555.3,1054.2,555.3z" transform="matrix(1, 0, 0, 1, 0, 7.105427357601002e-15)"/>
<path d="M1238.8,555.2h-26.5c-2,0-3.5-1.6-3.5-3.5c0-2,1.6-3.5,3.5-3.5h26.5c2,0,3.5,1.6,3.5,3.5&#10;&#9;&#9;C1242.4,553.6,1240.8,555.2,1238.8,555.2z" transform="matrix(1, 0, 0, 1, 0, 7.105427357601002e-15)"/>
<g transform="matrix(1, 0, 0, 1, 0, 7.105427357601002e-15)">
		<path d="M197.5,462.2h-97.1c-2,0-3.5-1.6-3.5-3.5V91.6c0-2,1.6-3.5,3.5-3.5h348.1c2,0,3.5,1.6,3.5,3.5v146.8c0,2-1.6,3.5-3.5,3.5&#10;&#9;&#9;&#9;H240.1c0.1,0-11.1,1.2-21.4,7.7c-13.5,8.4-19.5,21.5-17.7,38.9l0,170.1C201,460.6,199.4,462.2,197.5,462.2z M103.9,455.2h90V289&#10;&#9;&#9;&#9;c-1.4-13.8,1.7-25.8,9.3-35.2c13.4-16.4,35.6-18.8,36.5-18.9l205.2,0V95.1H103.9V455.2z"/>
	</g><path d="M 88.5 458.700012 H 448.5 V 499.000011 H 88.5 V 458.700012 Z" fill="#26A0F0" transform="matrix(1, 0, 0, 1, 0, 1.4210854715202004e-14)"/><path d="M448.5,502.5h-360c-2,0-3.5-1.6-3.5-3.5v-40.3c0-2,1.6-3.5,3.5-3.5h360c2,0,3.5,1.6,3.5,3.5V499&#10;&#9;&#9;&#9;C452.1,500.9,450.5,502.5,448.5,502.5z M92.1,495.4H445v-33.2H92.1V495.4z" transform="matrix(1, 0, 0, 1, 0, 1.4210854715202004e-14)"/><path fill="#FF8579" d="M193.5,165c0,18.3-14.8,33.2-33.2,33.2c-18.3,0-33.2-14.8-33.2-33.2c0-18.3,14.8-33.2,33.2-33.2&#10;&#9;&#9;&#9;C178.7,131.9,193.5,146.7,193.5,165z" transform="matrix(1, 0, 0, 1, 0, 1.4210854715202004e-14)"/><path d="M160.4,201.7c-20.2,0-36.7-16.5-36.7-36.7s16.5-36.7,36.7-36.7s36.7,16.5,36.7,36.7S180.6,201.7,160.4,201.7z&#10;&#9;&#9;&#9; M160.4,135.4c-16.3,0-29.6,13.3-29.6,29.6s13.3,29.6,29.6,29.6c16.3,0,29.6-13.3,29.6-29.6S176.7,135.4,160.4,135.4z" transform="matrix(1, 0, 0, 1, 0, 1.4210854715202004e-14)"/><path fill="#26A0F0" d="M259.1,165c0,9.6-7.8,17.4-17.4,17.4c-9.6,0-17.4-7.8-17.4-17.4c0-9.6,7.8-17.4,17.4-17.4&#10;&#9;&#9;&#9;C251.3,147.6,259.1,155.4,259.1,165z" transform="matrix(1, 0, 0, 1, 0, 1.4210854715202004e-14)"/><path d="M241.7,185.9c-11.5,0-20.9-9.4-20.9-20.9c0-11.5,9.4-20.9,20.9-20.9c11.5,0,20.9,9.4,20.9,20.9&#10;&#9;&#9;&#9;C262.6,176.5,253.2,185.9,241.7,185.9z M241.7,151.2c-7.6,0-13.8,6.2-13.8,13.8c0,7.6,6.2,13.8,13.8,13.8&#10;&#9;&#9;&#9;c7.6,0,13.8-6.2,13.8-13.8C255.5,157.4,249.3,151.2,241.7,151.2z" transform="matrix(1, 0, 0, 1, 0, 1.4210854715202004e-14)"/><path d="M143.8,390.4c-2,0-3.5-1.6-3.5-3.5V242.4c0-2,1.6-3.5,3.5-3.5s3.5,1.6,3.5,3.5v144.5C147.3,388.8,145.8,390.4,143.8,390.4&#10;&#9;&#9;&#9;z" transform="matrix(1, 0, 0, 1, 0, 1.4210854715202004e-14)"/><path d="M160.4,262.9h-33.2c-2,0-3.5-1.6-3.5-3.5s1.6-3.5,3.5-3.5h33.2c2,0,3.5,1.6,3.5,3.5S162.3,262.9,160.4,262.9z" transform="matrix(1, 0, 0, 1, 0, 1.4210854715202004e-14)"/><path d="M160.4,290.5h-33.2c-2,0-3.5-1.6-3.5-3.5s1.6-3.5,3.5-3.5h33.2c2,0,3.5,1.6,3.5,3.5S162.3,290.5,160.4,290.5z" transform="matrix(1, 0, 0, 1, 0, 1.4210854715202004e-14)"/><path d="M160.4,318.2h-33.2c-2,0-3.5-1.6-3.5-3.5c0-2,1.6-3.5,3.5-3.5h33.2c2,0,3.5,1.6,3.5,3.5&#10;&#9;&#9;&#9;C163.9,316.6,162.3,318.2,160.4,318.2z" transform="matrix(1, 0, 0, 1, 0, 1.4210854715202004e-14)"/><path d="M160.4,345.8h-33.2c-2,0-3.5-1.6-3.5-3.5s1.6-3.5,3.5-3.5h33.2c2,0,3.5,1.6,3.5,3.5S162.3,345.8,160.4,345.8z" transform="matrix(1, 0, 0, 1, 0, 1.4210854715202004e-14)"/><path d="M160.4,373.4h-33.2c-2,0-3.5-1.6-3.5-3.5s1.6-3.5,3.5-3.5h33.2c2,0,3.5,1.6,3.5,3.5S162.3,373.4,160.4,373.4z" transform="matrix(1, 0, 0, 1, 0, 1.4210854715202004e-14)"/><path d="M163.7,428.5h-39.9c-2,0-3.5-1.6-3.5-3.5s1.6-3.5,3.5-3.5h39.9c2,0,3.5,1.6,3.5,3.5S165.7,428.5,163.7,428.5z" transform="matrix(1, 0, 0, 1, 0, 1.4210854715202004e-14)"/><path d="M384.6,218.3c-0.9,0-1.8-0.3-2.5-1c-1.4-1.4-1.4-3.6,0-5l41.1-41.1c1.4-1.4,3.6-1.4,5,0c1.4,1.4,1.4,3.6,0,5l-41.1,41.1&#10;&#9;&#9;&#9;C386.4,218,385.5,218.3,384.6,218.3z" transform="matrix(1, 0, 0, 1, 0, 1.4210854715202004e-14)"/><g transform="matrix(1, 0, 0, 1, 0, 1.4210854715202004e-14)">
			<path d="M405.7,435.7H240.5c-2,0-3.5-1.6-3.5-3.5s1.6-3.5,3.5-3.5h165.2c2,0,3.5,1.6,3.5,3.5S407.7,435.7,405.7,435.7z"/>
		</g><path fill="#F1F2F2" d="M323.1,294.3c-9.5,0-18.6,1.7-27.1,4.6l0.2-0.2h-53l20.6,20.6l0.1-0.1c-14.5,14.9-23.5,35.2-23.5,57.6&#10;&#9;&#9;&#9;&#9;v27.5h165.2v-27.5C405.7,331.2,368.8,294.3,323.1,294.3z" transform="matrix(1, 0, 0, 1, 0, 2.1316282072803006e-14)"/><path d="M405.7,407.9H240.5c-2,0-3.5-1.6-3.5-3.5v-27.5c0-21.3,7.8-41.6,22-57.4l-18.2-18.2c-1-1-1.3-2.5-0.8-3.9&#10;&#9;&#9;&#9;&#9;c0.5-1.3,1.8-2.2,3.3-2.2h52.6c8.9-3,18.1-4.5,27.2-4.5c47.5,0,86.1,38.6,86.1,86.1v27.5C409.3,406.3,407.7,407.9,405.7,407.9z&#10;&#9;&#9;&#9;&#9; M244.1,400.8h158.1v-24c0-43.6-35.5-79.1-79.1-79.1c-8.7,0-17.5,1.5-25.9,4.4c-0.7,0.3-1.5,0.3-2.2,0h-43.2l14.1,14.1&#10;&#9;&#9;&#9;&#9;c0.3,0.2,0.5,0.4,0.7,0.6c1.1,1.4,1.1,3.4-0.2,4.7c-14.5,14.9-22.5,34.4-22.5,55.1V400.8z" transform="matrix(1, 0, 0, 1, 0, 2.1316282072803006e-14)"/><path d="M428.7,366.8c-2,0-3.5-1.6-3.5-3.5v-22.1c0-6.6-1.8-11.5-5.3-14.8c-5.5-5.1-13.7-4.6-13.9-4.6l-24.8,0&#10;&#9;&#9;&#9;&#9;c-2,0-3.5-1.6-3.5-3.5s1.6-3.5,3.5-3.5h24.5c0.2,0,11-0.8,18.9,6.4c5,4.6,7.6,11.4,7.6,20v22.1&#10;&#9;&#9;&#9;&#9;C432.2,365.2,430.6,366.8,428.7,366.8z" transform="matrix(1, 0, 0, 1, 0, 2.1316282072803006e-14)"/><path d="M323.1,275.7c-2,0-3.5-1.6-3.5-3.5v-33.7c0-2,1.6-3.5,3.5-3.5s3.5,1.6,3.5,3.5v33.7C326.7,274.1,325.1,275.7,323.1,275.7z&#10;&#9;&#9;&#9;" transform="matrix(1, 0, 0, 1, 0, 1.4210854715202004e-14)"/>
<path d="M542,242h-93.4c-2,0-3.5-1.6-3.5-3.5s1.6-3.5,3.5-3.5H542c2,0,3.5,1.6,3.5,3.5S543.9,242,542,242z" transform="matrix(1, 0, 0, 1, 0, 7.105427357601002e-15)"/>
<path d="M542,197.8h-49.5c-2,0-3.5-1.6-3.5-3.5s1.6-3.5,3.5-3.5H542c2,0,3.5,1.6,3.5,3.5S543.9,197.8,542,197.8z" transform="matrix(1, 0, 0, 1, 0, 7.105427357601002e-15)"/>
<path d="M542,154.4h-49.5c-2,0-3.5-1.6-3.5-3.5c0-2,1.6-3.5,3.5-3.5H542c2,0,3.5,1.6,3.5,3.5C545.5,152.8,543.9,154.4,542,154.4z" transform="matrix(1, 0, 0, 1, 0, 7.105427357601002e-15)"/>
<path fill="#FF8579" d="M524.3,630.2c0,35.8-29,64.8-64.8,64.8c-35.8,0-64.8-29-64.8-64.8c0-35.8,29-64.8,64.8-64.8&#10;&#9;&#9;C495.3,565.4,524.3,594.4,524.3,630.2z" transform="matrix(1, 0, 0, 1, 0, 7.105427357601002e-15)"/><path d="M459.5,698.5c-37.7,0-68.3-30.7-68.3-68.3c0-37.7,30.6-68.3,68.3-68.3c37.7,0,68.3,30.7,68.3,68.3&#10;&#9;&#9;C527.8,667.9,497.2,698.5,459.5,698.5z M459.5,568.9c-33.8,0-61.3,27.5-61.3,61.3c0,33.8,27.5,61.3,61.3,61.3&#10;&#9;&#9;c33.8,0,61.3-27.5,61.3-61.3C520.8,596.4,493.3,568.9,459.5,568.9z" transform="matrix(1, 0, 0, 1, 0, 7.105427357601002e-15)"/>
<path d="M447.9,663L447.9,663c-0.9,0-1.8-0.4-2.5-1l-25-25c-1.4-1.4-1.4-3.6,0-5c1.4-1.4,3.6-1.4,5,0l22.5,22.5l45.8-45.8&#10;&#9;&#9;c1.4-1.4,3.6-1.4,5,0c1.4,1.4,1.4,3.6,0,5l-48.3,48.3C449.7,662.6,448.8,663,447.9,663z" transform="matrix(1, 0, 0, 1, 0, 7.105427357601002e-15)"/>
<path d="M532.1,476.4c-0.9,0-1.8-0.3-2.5-1l-32.2-32.2c-1.4-1.4-1.4-3.6,0-5c1.4-1.4,3.6-1.4,5,0l32.2,32.2c1.4,1.4,1.4,3.6,0,5&#10;&#9;&#9;C533.9,476,533,476.4,532.1,476.4z" transform="matrix(1, 0, 0, 1, 0, 7.105427357601002e-15)"/>
<path d="M499.8,476.4c-0.9,0-1.8-0.3-2.5-1c-1.4-1.4-1.4-3.6,0-5l32.2-32.2c1.4-1.4,3.6-1.4,5,0c1.4,1.4,1.4,3.6,0,5l-32.2,32.2&#10;&#9;&#9;C501.7,476,500.8,476.4,499.8,476.4z" transform="matrix(1, 0, 0, 1, 0, 7.105427357601002e-15)"/>
<path d="M569.7,407.9c-11.6,0-21.1-9.4-21.1-21.1s9.4-21.1,21.1-21.1c11.6,0,21.1,9.4,21.1,21.1S581.3,407.9,569.7,407.9z&#10;&#9;&#9; M569.7,372.9c-7.7,0-14,6.3-14,14s6.3,14,14,14c7.7,0,14-6.3,14-14S577.4,372.9,569.7,372.9z" transform="matrix(1, 0, 0, 1, 0, 7.105427357601002e-15)"/>
<path d="M838,390.4c-11.6,0-21.1-9.4-21.1-21.1s9.5-21.1,21.1-21.1c11.6,0,21.1,9.4,21.1,21.1S849.6,390.4,838,390.4z M838,355.3&#10;&#9;&#9;c-7.7,0-14,6.3-14,14s6.3,14,14,14c7.7,0,14-6.3,14-14S845.7,355.3,838,355.3z" transform="matrix(1, 0, 0, 1, 0, 7.105427357601002e-15)"/>
<path d="M512.2,371.7h-33.6c-2,0-3.5-1.6-3.5-3.5c0-2,1.6-3.5,3.5-3.5h33.6c2,0,3.5,1.6,3.5,3.5&#10;&#9;&#9;C515.8,370.2,514.2,371.7,512.2,371.7z" transform="matrix(1, 0, 0, 1, 0, 7.105427357601002e-15)"/>
<path d="M542,318.2h-36.8c-2,0-3.5-1.6-3.5-3.5c0-2,1.6-3.5,3.5-3.5H542c2,0,3.5,1.6,3.5,3.5C545.5,316.6,543.9,318.2,542,318.2z" transform="matrix(1, 0, 0, 1, 0, 7.105427357601002e-15)"/>
<path d="M818.9,435.7h-36.8c-2,0-3.5-1.6-3.5-3.5s1.6-3.5,3.5-3.5h36.8c2,0,3.5,1.6,3.5,3.5S820.9,435.7,818.9,435.7z" transform="matrix(1, 0, 0, 1, 0, 7.105427357601002e-15)"/>
<path fill="#FF8579" d="M787.6,228l-5.9-5.9c-2.7-2.7-5.6-4.9-8.6-6.9c-5.5-3.5-11.6-5.8-17.8-6.9c-15.5-2.8-32.1,1.8-44,13.8&#10;&#9;&#9;l-9.3,9.3l-9.3-9.3c-12-12-28.5-16.6-44-13.8c-6.2,1.1-12.3,3.4-17.8,6.9c-3.1,1.9-5.9,4.2-8.6,6.9l-5.9,5.9&#10;&#9;&#9;c-19.5,19.5-19.5,51,0,70.5l9.3,9.3l76.4,76.3l76.3-76.3l9.3-9.3C807.1,279,807.1,247.4,787.6,228z" transform="matrix(1, 0, 0, 1, 0, 7.105427357601002e-15)"/>
<g transform="matrix(1, 0, 0, 1, 0, 7.105427357601002e-15)">
		<path d="M 941.5 118.30000305175781 L 894.9000244140625 118.30000305175781 L 894.9000244140625 124.5999984741211 L 914.9000244140625 124.5999984741211 L 914.9000244140625 186 L 921.5 186 L 921.5 124.5999984741211 L 941.5 124.5999984741211 Z"/>
	</g><path d="M960.5,118.3L934.4,186h6.7l8.4-21.9H977l8.3,21.9h6.7l-25.7-67.7H960.5z M952,157.9l11.4-29.4l11.2,29.4H952z" transform="matrix(1, 0, 0, 1, 0, 1.4210854715202004e-14)"/><path d="M1030,153.3c-2.7-1.7-7.5-3.5-14.4-5.3c-0.4-0.2-0.8-0.3-1.5-0.4c-7.7-2-10.7-3.7-11.9-4.8c-2.3-2.1-3.4-4.5-3.4-7.4&#10;&#9;&#9;&#9;c0-4.1,1.3-7.2,4.1-9.3c2.6-2.1,6.1-3.2,10.4-3.2c4.6,0,8.5,1.3,11.4,3.8c3,2.6,4.5,6.1,4.6,10.8l0,1.7h6.4l-0.1-1.9&#10;&#9;&#9;&#9;c-0.3-6.5-2.6-11.6-6.7-15.1c-3.9-3.6-9.2-5.4-15.6-5.4c-5.9,0-10.8,1.5-14.6,4.6c-4.3,3.3-6.4,8-6.4,14c0,4.8,1.7,8.9,5.1,11.9&#10;&#9;&#9;&#9;c2.2,2,7,4,14.8,6.2c0.3,0.1,0.5,0.1,0.6,0.2l0.5,0.2c8,2.2,11.1,3.6,12.4,4.4c3.5,2.2,5.2,5.3,5.2,9.7c0,4.2-1.6,7.4-5,9.8&#10;&#9;&#9;&#9;c-3,2.3-6.8,3.4-11.4,3.4c-5.3,0-9.3-1.4-12.3-4.4c-3-3-4.7-7.1-5-12.2l-0.1-1.7h-6.5l0.1,1.9c0.4,7,2.8,12.5,6.9,16.4&#10;&#9;&#9;&#9;c4.1,4.1,9.7,6.1,16.7,6.1c6.5,0,11.9-1.6,16.1-4.8c4.6-3.7,7-8.8,7-15.3C1037.6,161.2,1035.1,156.5,1030,153.3z" transform="matrix(1, 0, 0, 1, 0, 1.4210854715202004e-14)"/><path d="M 1127.9000244140625 118.30000305175781 L 1108.9000244140625 149.39999389648438 L 1089.699951171875 118.30000305175781 L 1086 118.30000305175781 L 1082.0999755859375 118.30000305175781 L 1039.4000244140625 118.30000305175781 L 1039.4000244140625 124.5999984741211 L 1059.4000244140625 124.5999984741211 L 1059.4000244140625 186 L 1066 186 L 1066 124.5999984741211 L 1086 124.5999984741211 L 1086 124.5 L 1105.5999755859375 156.3000030517578 L 1105.5999755859375 186 L 1112 186 L 1112 156.5 L 1135.5 118.30000305175781 Z" transform="matrix(1, 0, 0, 1, 0, 1.4210854715202004e-14)"/>
<path d="M 992.799988 626.799988 H 1212.199982 V 652.699987 H 992.799988 V 626.799988 Z" fill="#F1F2F2" transform="matrix(1, 0, 0, 1, 0, 7.105427357601002e-15)"/><path d="M1212.1,656.2H992.8c-2,0-3.5-1.6-3.5-3.5v-25.9c0-2,1.6-3.5,3.5-3.5h219.4c2,0,3.5,1.6,3.5,3.5v25.9&#10;&#9;&#9;C1215.7,654.6,1214.1,656.2,1212.1,656.2z M996.3,649.1h212.3v-18.8H996.3V649.1z" transform="matrix(1, 0, 0, 1, 0, 7.105427357601002e-15)"/>
<path d="M 992.799988 684.5 H 1212.199982 V 710.4 H 992.799988 V 684.5 Z" fill="#F1F2F2" transform="matrix(1, 0, 0, 1, 0, 7.105427357601002e-15)"/><path d="M1212.1,713.9H992.8c-2,0-3.5-1.6-3.5-3.5v-25.9c0-2,1.6-3.5,3.5-3.5h219.4c2,0,3.5,1.6,3.5,3.5v25.9&#10;&#9;&#9;C1215.7,712.3,1214.1,713.9,1212.1,713.9z M996.3,706.9h212.3V688H996.3V706.9z" transform="matrix(1, 0, 0, 1, 0, 7.105427357601002e-15)"/>
<path d="M 992.799988 742.299988 H 1212.199982 V 768.199987 H 992.799988 V 742.299988 Z" fill="#F1F2F2" transform="matrix(1, 0, 0, 1, 0, 7.105427357601002e-15)"/><path d="M1212.1,771.7H992.8c-2,0-3.5-1.6-3.5-3.5v-25.9c0-2,1.6-3.5,3.5-3.5h219.4c2,0,3.5,1.6,3.5,3.5v25.9&#10;&#9;&#9;C1215.7,770.1,1214.1,771.7,1212.1,771.7z M996.3,764.6h212.3v-18.8H996.3V764.6z" transform="matrix(1, 0, 0, 1, 0, 7.105427357601002e-15)"/>
<path d="M 992.799988 800 H 1212.199982 V 825.9 H 992.799988 V 800 Z" fill="#F1F2F2" transform="matrix(1, 0, 0, 1, 0, 7.105427357601002e-15)"/><path d="M1212.1,829.4H992.8c-2,0-3.5-1.6-3.5-3.5V800c0-2,1.6-3.5,3.5-3.5h219.4c2,0,3.5,1.6,3.5,3.5v25.9&#10;&#9;&#9;C1215.7,827.8,1214.1,829.4,1212.1,829.4z M996.3,822.3h212.3v-18.8H996.3V822.3z" transform="matrix(1, 0, 0, 1, 0, 7.105427357601002e-15)"/>
<path fill="#FFFFFF" d="M1116.7,779.9c0,70-56.7,126.7-126.7,126.7s-126.7-56.7-126.7-126.7c0-70,56.7-126.7,126.7-126.7&#10;&#9;&#9;S1116.7,709.9,1116.7,779.9z" transform="matrix(1, 0, 0, 1, 0, 7.105427357601002e-15)"/><path d="M990,910.1c-71.8,0-130.2-58.4-130.2-130.2c0-71.8,58.4-130.2,130.2-130.2s130.2,58.4,130.2,130.2&#10;&#9;&#9;C1120.3,851.7,1061.8,910.1,990,910.1z M990,656.7c-67.9,0-123.1,55.2-123.1,123.1c0,67.9,55.2,123.2,123.1,123.2&#10;&#9;&#9;s123.1-55.2,123.1-123.2C1113.2,712,1057.9,656.7,990,656.7z" transform="matrix(1, 0, 0, 1, 0, 7.105427357601002e-15)"/>
<g transform="matrix(1, 0, 0, 1, 0, 7.105427357601002e-15)">
		<path fill="#FFFFFF" d="M1005.3,716.4v-33.2c0-0.6-0.4-1.2-1.1-1.3c0,0-4.1-0.8-9.3-0.8c-13.6,0-21.1,5.5-21.1,15.4V750H929&#10;&#9;&#9;&#9;c-9.7,0-17.6,7.9-17.6,17.6v62c0,9.7,7.9,17.6,17.6,17.6h114.1V750L1005.3,716.4z"/>
		<path d="M1043.1,850.8H929c-11.7,0-21.1-9.5-21.1-21.1v-62c0-11.7,9.5-21.1,21.1-21.1h41.3v-50c0-12,9-18.9,24.6-18.9&#10;&#9;&#9;&#9;c5.4,0,9.9,0.8,10.4,1c1.8,0.3,3.5,2.3,3.5,4.7v31.6l36.6,32.6c0.8,0.7,1.2,1.6,1.2,2.6v97.2&#10;&#9;&#9;&#9;C1046.6,849.2,1045,850.8,1043.1,850.8z M929,753.6c-7.8,0-14.1,6.3-14.1,14.1v62c0,7.8,6.3,14.1,14.1,14.1h110.5v-92.1L1003,719&#10;&#9;&#9;&#9;c-0.8-0.7-1.2-1.6-1.2-2.6v-31.3c-1.5-0.2-4-0.5-6.8-0.5c-11.6,0-17.6,4-17.6,11.8V750c0,2-1.6,3.5-3.5,3.5H929z"/>
	</g><path fill="#26A0F0" d="M1064,750h-20.9v97.2h20.9c0.7,0,1.3-0.6,1.3-1.3v-94.6C1065.3,750.6,1064.7,750,1064,750z" transform="matrix(1, 0, 0, 1, 0, 1.4210854715202004e-14)"/><path d="M1064,850.8h-20.9c-2,0-3.5-1.6-3.5-3.5V750c0-2,1.6-3.5,3.5-3.5h20.9c2.7,0,4.9,2.2,4.9,4.9V846&#10;&#9;&#9;&#9;C1068.9,848.6,1066.7,850.8,1064,850.8z M1046.6,843.7h15.2v-90.2h-15.2V843.7z" transform="matrix(1, 0, 0, 1, 0, 1.4210854715202004e-14)"/>
<g transform="matrix(1, 0, 0, 1, 0, 7.105427357601002e-15)">
		<path d="M401.5,839.3c-0.6,2.5-1.8,4.4-3.5,6c-2.3,2-5.4,3-9.3,3c-4.7,0-8.1-1.9-10.5-5.7c-2.1-3.3-3.1-7.7-3.1-13&#10;&#9;&#9;&#9;c0-5.3,1.1-9.7,3.2-13.1c2.4-3.9,6-5.8,10.7-5.8c6.4,0,10.4,2.5,12.1,7.6l0.6,2l5.1-2.6l-0.5-1.5c-1-2.7-2.7-5-5-6.9&#10;&#9;&#9;&#9;c-3.2-2.6-7.2-3.9-11.9-3.9c-6.8,0-12,2.5-15.5,7.6c-2.9,4.3-4.4,9.9-4.4,16.6s1.4,12.3,4.3,16.4c3.4,5,8.6,7.5,15.3,7.5&#10;&#9;&#9;&#9;c5.2,0,9.4-1.5,12.7-4.3c2.4-2.2,4.1-4.9,4.9-8.1l0.4-1.4l-5-2.6L401.5,839.3z"/>
	</g><path d="M430.6,805.5c-6.9,0-12.2,2.5-15.9,7.4c-3.2,4.3-4.8,9.9-4.8,16.8c0,6.9,1.6,12.5,4.8,16.8c3.6,4.8,9,7.2,15.9,7.2&#10;&#9;&#9;&#9;s12.2-2.4,15.9-7.2c3.2-4.2,4.8-9.9,4.8-16.8c0-6.8-1.6-12.5-4.8-16.8C442.9,807.9,437.5,805.5,430.6,805.5z M430.6,848.3&#10;&#9;&#9;&#9;c-5.1,0-8.9-1.8-11.5-5.4c-2.4-3.3-3.5-7.8-3.5-13.3c0-5.5,1.2-10,3.5-13.3c2.6-3.7,6.4-5.5,11.5-5.5c5.1,0,8.9,1.8,11.5,5.5&#10;&#9;&#9;&#9;c2.4,3.3,3.6,7.8,3.6,13.3c0,5.6-1.2,10-3.5,13.3C439.6,846.5,435.8,848.3,430.6,848.3z" transform="matrix(1, 0, 0, 1, 0, 1.4210854715202004e-14)"/><path d="M 455.79998779296875 852.7000122070312 L 461.3999938964844 852.7000122070312 L 461.3999938964844 831.2999877929688 L 479.6000061035156 831.2999877929688 L 479.6000061035156 826 L 461.3999938964844 826 L 461.3999938964844 811.7999877929688 L 484.29998779296875 811.7999877929688 L 484.29998779296875 806.4000244140625 L 455.79998779296875 806.4000244140625 Z" transform="matrix(1, 0, 0, 1, 0, 1.4210854715202004e-14)"/><path d="M 486.8999938964844 852.7000122070312 L 492.5 852.7000122070312 L 492.5 831.2999877929688 L 510.70001220703125 831.2999877929688 L 510.70001220703125 826 L 492.5 826 L 492.5 811.7999877929688 L 515.4000244140625 811.7999877929688 L 515.4000244140625 806.4000244140625 L 486.8999938964844 806.4000244140625 Z" transform="matrix(1, 0, 0, 1, 0, 1.4210854715202004e-14)"/><path d="M 523.5999755859375 831.2999877929688 L 542.7000122070312 831.2999877929688 L 542.7000122070312 826 L 523.5999755859375 826 L 523.5999755859375 811.7999877929688 L 547.7000122070312 811.7999877929688 L 547.7000122070312 806.4000244140625 L 518 806.4000244140625 L 518 852.7000122070312 L 548.2999877929688 852.7000122070312 L 548.2999877929688 847.2999877929688 L 523.5999755859375 847.2999877929688 Z" transform="matrix(1, 0, 0, 1, 0, 1.4210854715202004e-14)"/><path d="M 557.2999877929688 847.2999877929688 L 557.2999877929688 831.2999877929688 L 576.4000244140625 831.2999877929688 L 576.4000244140625 826 L 557.2999877929688 826 L 557.2999877929688 811.7999877929688 L 581.4000244140625 811.7999877929688 L 581.4000244140625 806.4000244140625 L 551.7000122070312 806.4000244140625 L 551.7000122070312 852.7000122070312 L 582 852.7000122070312 L 582 847.2999877929688 Z" transform="matrix(1, 0, 0, 1, 0, 1.4210854715202004e-14)"/>
</svg>